G75*
%MOIN*%
%OFA0B0*%
%FSLAX25Y25*%
%IPPOS*%
%LPD*%
%AMOC8*
5,1,8,0,0,1.08239X$1,22.5*
%
%ADD10R,0.04724X0.04724*%
%ADD11R,0.05512X0.04331*%
%ADD12R,0.05118X0.05906*%
%ADD13R,0.06102X0.05118*%
%ADD14R,0.09843X0.01969*%
%ADD15R,0.09843X0.07874*%
%ADD16R,0.05512X0.07480*%
%ADD17R,0.07087X0.05512*%
%ADD18R,0.02756X0.05906*%
%ADD19R,0.04724X0.05512*%
%ADD20R,0.10000X0.07600*%
%ADD21R,0.07874X0.01969*%
D10*
X0181512Y0051236D03*
X0181512Y0059504D03*
D11*
X0181354Y0044189D03*
X0181354Y0036315D03*
X0091945Y0279346D03*
X0091945Y0287220D03*
D12*
X0088362Y0115724D03*
X0080882Y0115724D03*
X0081354Y0064425D03*
X0088835Y0064425D03*
D13*
X0057791Y0036236D03*
X0057791Y0053953D03*
X0089091Y0053953D03*
X0089091Y0036236D03*
X0088776Y0087850D03*
X0088776Y0105567D03*
X0057476Y0105567D03*
X0057476Y0087850D03*
D14*
X0035803Y0083480D03*
X0035803Y0080331D03*
X0035803Y0077181D03*
X0035803Y0074031D03*
X0035803Y0070882D03*
D15*
X0035803Y0059465D03*
X0014150Y0059465D03*
X0014150Y0094898D03*
X0035803Y0094898D03*
D16*
X0114346Y0012220D03*
X0166315Y0008677D03*
D17*
X0144268Y0063795D03*
X0120646Y0063795D03*
D18*
X0122220Y0023638D03*
X0117890Y0023638D03*
X0126551Y0022063D03*
X0130882Y0023638D03*
X0135213Y0022063D03*
X0139543Y0023638D03*
X0143874Y0025213D03*
X0148205Y0023638D03*
D19*
X0103756Y0297457D03*
X0091945Y0297457D03*
D20*
X0128569Y0114681D03*
X0128569Y0103431D03*
X0128569Y0088431D03*
X0171069Y0088431D03*
X0171069Y0103431D03*
X0171069Y0114681D03*
D21*
X0050213Y0180921D03*
X0050213Y0184071D03*
X0050213Y0187220D03*
X0050213Y0190370D03*
X0050213Y0193520D03*
X0050213Y0196669D03*
X0050213Y0199819D03*
X0050213Y0202969D03*
X0050213Y0206118D03*
X0050213Y0209268D03*
X0050213Y0212417D03*
X0050213Y0215567D03*
X0050213Y0218717D03*
X0050213Y0221866D03*
M02*
