G75*
%MOIN*%
%OFA0B0*%
%FSLAX25Y25*%
%IPPOS*%
%LPD*%
%AMOC8*
5,1,8,0,0,1.08239X$1,22.5*
%
%ADD10C,0.13398*%
%ADD11R,0.05524X0.05524*%
%ADD12C,0.08674*%
%ADD13R,0.06312X0.05131*%
%ADD14R,0.05918X0.06706*%
%ADD15R,0.06902X0.05918*%
%ADD16C,0.05556*%
%ADD17R,0.10643X0.02769*%
%ADD18R,0.10643X0.08674*%
%ADD19C,0.04343*%
%ADD20R,0.06312X0.08280*%
%ADD21R,0.07887X0.06312*%
%ADD22R,0.03556X0.06706*%
%ADD23R,0.07800X0.07800*%
%ADD24C,0.07800*%
%ADD25C,0.07099*%
%ADD26C,0.07296*%
%ADD27R,0.05524X0.06312*%
%ADD28C,0.08200*%
%ADD29R,0.10800X0.08400*%
%ADD30R,0.08674X0.02769*%
%ADD31C,0.03162*%
D10*
X0017929Y0017929D03*
X0260961Y0175134D03*
X0347575Y0175134D03*
X0347575Y0261748D03*
X0380134Y0301394D03*
X0260961Y0261748D03*
X0017929Y0301394D03*
X0380134Y0017929D03*
D11*
X0181512Y0051236D03*
X0181512Y0059504D03*
D12*
X0076984Y0278008D02*
X0069110Y0278008D01*
X0053362Y0285882D02*
X0053362Y0293756D01*
X0069110Y0302811D02*
X0076984Y0302811D01*
D13*
X0091945Y0287220D03*
X0091945Y0279346D03*
X0181354Y0044189D03*
X0181354Y0036315D03*
D14*
X0088835Y0064425D03*
X0081354Y0064425D03*
X0080882Y0115724D03*
X0088362Y0115724D03*
D15*
X0088776Y0105567D03*
X0088776Y0087850D03*
X0057476Y0087850D03*
X0057476Y0105567D03*
X0057791Y0053953D03*
X0057791Y0036236D03*
X0089091Y0036236D03*
X0089091Y0053953D03*
D16*
X0293047Y0178756D03*
X0299346Y0178756D03*
X0305646Y0178756D03*
X0311945Y0178756D03*
X0315094Y0188756D03*
X0308795Y0188756D03*
X0302496Y0188756D03*
X0296197Y0188756D03*
X0274583Y0207614D03*
X0274583Y0213913D03*
X0274583Y0220213D03*
X0274583Y0226512D03*
X0264583Y0229661D03*
X0264583Y0223362D03*
X0264583Y0217063D03*
X0264583Y0210764D03*
X0293047Y0248126D03*
X0299346Y0248126D03*
X0305646Y0248126D03*
X0311945Y0248126D03*
X0315094Y0258126D03*
X0308795Y0258126D03*
X0302496Y0258126D03*
X0296197Y0258126D03*
X0333953Y0229661D03*
X0333953Y0223362D03*
X0333953Y0217063D03*
X0333953Y0210764D03*
X0343953Y0213913D03*
X0343953Y0207614D03*
X0343953Y0220213D03*
X0343953Y0226512D03*
D17*
X0035803Y0083480D03*
X0035803Y0080331D03*
X0035803Y0077181D03*
X0035803Y0074031D03*
X0035803Y0070882D03*
D18*
X0035803Y0059465D03*
X0014150Y0059465D03*
X0014150Y0094898D03*
X0035803Y0094898D03*
D19*
X0025961Y0085843D03*
X0025961Y0068520D03*
D20*
X0114346Y0012220D03*
X0166315Y0008677D03*
D21*
X0144268Y0063795D03*
X0120646Y0063795D03*
D22*
X0122220Y0023638D03*
X0117890Y0023638D03*
X0126551Y0022063D03*
X0130882Y0023638D03*
X0135213Y0022063D03*
X0139543Y0023638D03*
X0143874Y0025213D03*
X0148205Y0023638D03*
D23*
X0175409Y0284858D03*
D24*
X0185409Y0284858D03*
X0185409Y0294858D03*
X0175409Y0294858D03*
X0195409Y0294858D03*
X0195409Y0284858D03*
D25*
X0221630Y0112772D03*
X0231630Y0112772D03*
X0241630Y0112772D03*
X0251630Y0112772D03*
X0261630Y0112772D03*
X0271630Y0112772D03*
X0281630Y0112772D03*
X0291630Y0112772D03*
X0301630Y0112772D03*
X0311630Y0112772D03*
X0321630Y0112772D03*
X0331630Y0112772D03*
X0341630Y0112772D03*
X0351630Y0112772D03*
X0351630Y0097772D03*
X0341630Y0097772D03*
X0331630Y0097772D03*
X0321630Y0097772D03*
X0311630Y0097772D03*
X0301630Y0097772D03*
X0291630Y0097772D03*
X0281630Y0097772D03*
X0271630Y0097772D03*
X0261630Y0097772D03*
X0251630Y0097772D03*
X0241630Y0097772D03*
X0231630Y0097772D03*
X0221630Y0097772D03*
X0221630Y0067772D03*
X0231630Y0067772D03*
X0241630Y0067772D03*
X0251630Y0067772D03*
X0261630Y0067772D03*
X0271630Y0067772D03*
X0281630Y0067772D03*
X0291630Y0067772D03*
X0301630Y0067772D03*
X0311630Y0067772D03*
X0321630Y0067772D03*
X0331630Y0067772D03*
X0341630Y0067772D03*
X0351630Y0067772D03*
X0351630Y0052772D03*
X0341630Y0052772D03*
X0331630Y0052772D03*
X0321630Y0052772D03*
X0311630Y0052772D03*
X0301630Y0052772D03*
X0291630Y0052772D03*
X0281630Y0052772D03*
X0271630Y0052772D03*
X0261630Y0052772D03*
X0251630Y0052772D03*
X0241630Y0052772D03*
X0231630Y0052772D03*
X0221630Y0052772D03*
D26*
X0202890Y0082732D03*
X0384346Y0082811D03*
D27*
X0103756Y0297457D03*
X0091945Y0297457D03*
D28*
X0203362Y0224740D03*
X0203362Y0214740D03*
X0203362Y0204740D03*
D29*
X0171069Y0114681D03*
X0171069Y0103431D03*
X0171069Y0088431D03*
X0128569Y0088431D03*
X0128569Y0103431D03*
X0128569Y0114681D03*
D30*
X0050213Y0180921D03*
X0050213Y0184071D03*
X0050213Y0187220D03*
X0050213Y0190370D03*
X0050213Y0193520D03*
X0050213Y0196669D03*
X0050213Y0199819D03*
X0050213Y0202969D03*
X0050213Y0206118D03*
X0050213Y0209268D03*
X0050213Y0212417D03*
X0050213Y0215567D03*
X0050213Y0218717D03*
X0050213Y0221866D03*
D31*
X0035252Y0251787D03*
X0035252Y0171276D03*
M02*
