G75*
%MOIN*%
%OFA0B0*%
%FSLAX25Y25*%
%IPPOS*%
%LPD*%
%AMOC8*
5,1,8,0,0,1.08239X$1,22.5*
%
%ADD10C,0.00300*%
%ADD11C,0.00800*%
%ADD12C,0.00600*%
%ADD13C,0.00200*%
%ADD14C,0.00400*%
%ADD15R,0.03400X0.03000*%
%ADD16C,0.00000*%
%ADD17R,0.05512X0.02559*%
%ADD18C,0.01000*%
%ADD19R,0.01000X0.00334*%
%ADD20R,0.01000X0.00333*%
%ADD21R,0.00670X0.00333*%
%ADD22R,0.00330X0.00333*%
%ADD23R,0.01330X0.00334*%
%ADD24R,0.02000X0.00333*%
%ADD25R,0.01670X0.00333*%
%ADD26R,0.02670X0.00333*%
%ADD27R,0.02660X0.00333*%
%ADD28R,0.25670X0.00334*%
%ADD29R,0.01340X0.00334*%
%ADD30R,0.09330X0.00334*%
%ADD31R,0.25340X0.00333*%
%ADD32R,0.01330X0.00333*%
%ADD33R,0.01340X0.00333*%
%ADD34R,0.09000X0.00333*%
%ADD35R,0.08670X0.00333*%
%ADD36R,0.02660X0.00334*%
%ADD37R,0.02670X0.00334*%
%ADD38R,0.00660X0.00334*%
%ADD39R,0.00670X0.00334*%
%ADD40R,0.00340X0.00333*%
%ADD41R,0.02000X0.00334*%
%ADD42R,0.03000X0.00334*%
%ADD43R,0.02330X0.00333*%
%ADD44R,0.00660X0.00333*%
%ADD45R,0.03000X0.00333*%
%ADD46R,0.03340X0.00333*%
%ADD47R,0.01660X0.00333*%
%ADD48R,0.03330X0.00334*%
%ADD49R,0.03330X0.00333*%
%ADD50R,0.01670X0.00334*%
%ADD51R,0.01660X0.00334*%
%ADD52R,0.02330X0.00334*%
%ADD53R,0.45000X0.00333*%
%ADD54R,0.06330X0.00333*%
%ADD55R,0.45000X0.00334*%
%ADD56R,0.06330X0.00334*%
%ADD57R,0.04000X0.00334*%
%ADD58R,0.03670X0.00333*%
%ADD59R,0.04000X0.00333*%
%ADD60R,0.02340X0.00333*%
%ADD61R,0.03670X0.00334*%
%ADD62R,0.03660X0.00333*%
%ADD63R,0.00330X0.00334*%
%ADD64R,0.00340X0.00334*%
%ADD65R,0.02340X0.00334*%
%ADD66R,0.04330X0.00333*%
%ADD67R,0.05670X0.00334*%
%ADD68R,0.07000X0.00333*%
%ADD69R,0.07670X0.00333*%
%ADD70R,0.09000X0.00334*%
%ADD71R,0.08330X0.00333*%
%ADD72R,0.07670X0.00334*%
%ADD73R,0.05670X0.00333*%
%ADD74R,0.05000X0.00333*%
%ADD75R,0.05000X0.00334*%
%ADD76R,0.04340X0.00333*%
%ADD77R,0.04330X0.00334*%
%ADD78R,0.04340X0.00334*%
%ADD79R,0.04660X0.00333*%
%ADD80R,0.04670X0.00333*%
%ADD81R,0.05340X0.00333*%
%ADD82R,0.05330X0.00333*%
%ADD83R,0.05330X0.00334*%
%ADD84R,0.04670X0.00334*%
%ADD85R,0.02559X0.05512*%
D10*
X0049682Y0017603D02*
X0052151Y0017603D01*
X0050917Y0017603D02*
X0050917Y0021306D01*
X0052151Y0020072D01*
X0053366Y0021306D02*
X0055834Y0021306D01*
X0055834Y0017603D01*
X0055834Y0019454D02*
X0054600Y0019454D01*
X0059238Y0028906D02*
X0061664Y0028906D01*
X0059238Y0031333D01*
X0061664Y0031333D01*
X0062863Y0030726D02*
X0065290Y0030726D01*
X0065290Y0028906D02*
X0065290Y0032546D01*
X0066488Y0032546D02*
X0066488Y0028906D01*
X0068915Y0028906D02*
X0068915Y0032546D01*
X0067701Y0031333D01*
X0066488Y0032546D01*
X0062863Y0032546D02*
X0062863Y0028906D01*
X0070113Y0028906D02*
X0072540Y0028906D01*
X0070113Y0031333D01*
X0070113Y0031939D01*
X0070720Y0032546D01*
X0071933Y0032546D01*
X0072540Y0031939D01*
X0074952Y0032546D02*
X0074952Y0028906D01*
X0076165Y0028906D02*
X0073738Y0028906D01*
X0076165Y0031333D02*
X0074952Y0032546D01*
X0082575Y0042589D02*
X0081968Y0043196D01*
X0081968Y0043802D01*
X0082575Y0044409D01*
X0084395Y0044409D01*
X0084395Y0043196D01*
X0083788Y0042589D01*
X0082575Y0042589D01*
X0084395Y0044409D02*
X0083182Y0045622D01*
X0081968Y0046229D01*
X0086807Y0046229D02*
X0086807Y0042589D01*
X0088020Y0042589D02*
X0085593Y0042589D01*
X0088020Y0045016D02*
X0086807Y0046229D01*
X0089219Y0045622D02*
X0089825Y0046229D01*
X0091039Y0046229D01*
X0091645Y0045622D01*
X0091645Y0043196D01*
X0091039Y0042589D01*
X0089825Y0042589D01*
X0089219Y0043196D01*
X0095686Y0037210D02*
X0095686Y0035997D01*
X0096293Y0035390D01*
X0098113Y0035390D01*
X0099311Y0035390D02*
X0101738Y0035390D01*
X0099311Y0037817D01*
X0099311Y0038424D01*
X0099918Y0039030D01*
X0101131Y0039030D01*
X0101738Y0038424D01*
X0102936Y0038424D02*
X0103543Y0039030D01*
X0104757Y0039030D01*
X0105363Y0038424D01*
X0102936Y0038424D02*
X0102936Y0037817D01*
X0105363Y0035390D01*
X0102936Y0035390D01*
X0098113Y0034177D02*
X0098113Y0037817D01*
X0096293Y0037817D01*
X0095686Y0037210D01*
X0069833Y0049949D02*
X0069833Y0051769D01*
X0068620Y0052983D01*
X0068620Y0053589D01*
X0067422Y0052983D02*
X0066815Y0053589D01*
X0065602Y0053589D01*
X0064995Y0052983D01*
X0064995Y0052376D01*
X0065602Y0051769D01*
X0064995Y0051163D01*
X0064995Y0050556D01*
X0065602Y0049949D01*
X0066815Y0049949D01*
X0067422Y0050556D01*
X0066208Y0051769D02*
X0065602Y0051769D01*
X0069833Y0051769D02*
X0071047Y0052983D01*
X0071047Y0053589D01*
X0093757Y0070548D02*
X0093757Y0072368D01*
X0094364Y0072974D01*
X0096184Y0072974D01*
X0096184Y0070548D01*
X0097382Y0071154D02*
X0097989Y0070548D01*
X0099202Y0070548D01*
X0099809Y0071154D01*
X0097382Y0073581D01*
X0097382Y0071154D01*
X0099809Y0071154D02*
X0099809Y0073581D01*
X0099202Y0074188D01*
X0097989Y0074188D01*
X0097382Y0073581D01*
X0101007Y0073581D02*
X0103434Y0071154D01*
X0102827Y0070548D01*
X0101614Y0070548D01*
X0101007Y0071154D01*
X0101007Y0073581D01*
X0101614Y0074188D01*
X0102827Y0074188D01*
X0103434Y0073581D01*
X0103434Y0071154D01*
X0104633Y0070548D02*
X0107059Y0070548D01*
X0105846Y0070548D02*
X0105846Y0074188D01*
X0107059Y0072974D01*
X0093181Y0080085D02*
X0093181Y0082512D01*
X0092574Y0083119D01*
X0091361Y0083119D01*
X0090754Y0082512D01*
X0089556Y0081905D02*
X0088342Y0083119D01*
X0088342Y0079479D01*
X0087129Y0079479D02*
X0089556Y0079479D01*
X0090754Y0080085D02*
X0091361Y0079479D01*
X0092574Y0079479D01*
X0093181Y0080085D01*
X0085930Y0080085D02*
X0085324Y0079479D01*
X0084110Y0079479D01*
X0083504Y0080085D01*
X0083504Y0081299D01*
X0084110Y0081905D01*
X0084717Y0081905D01*
X0085930Y0081299D01*
X0085930Y0083119D01*
X0083504Y0083119D01*
X0070406Y0103894D02*
X0067979Y0103894D01*
X0069192Y0103894D02*
X0069192Y0107534D01*
X0070406Y0106321D01*
X0066781Y0106928D02*
X0066781Y0104501D01*
X0064354Y0106928D01*
X0064354Y0104501D01*
X0064961Y0103894D01*
X0066174Y0103894D01*
X0066781Y0104501D01*
X0066781Y0106928D02*
X0066174Y0107534D01*
X0064961Y0107534D01*
X0064354Y0106928D01*
X0063155Y0106928D02*
X0062549Y0107534D01*
X0061335Y0107534D01*
X0060729Y0106928D01*
X0063155Y0104501D01*
X0062549Y0103894D01*
X0061335Y0103894D01*
X0060729Y0104501D01*
X0060729Y0106928D01*
X0059530Y0106321D02*
X0059530Y0103894D01*
X0057104Y0103894D02*
X0057104Y0105714D01*
X0057710Y0106321D01*
X0059530Y0106321D01*
X0063155Y0106928D02*
X0063155Y0104501D01*
X0077182Y0110587D02*
X0077182Y0112407D01*
X0077789Y0113014D01*
X0079609Y0113014D01*
X0079609Y0110587D01*
X0080807Y0111194D02*
X0081414Y0110587D01*
X0082627Y0110587D01*
X0083234Y0111194D01*
X0080807Y0113620D01*
X0080807Y0111194D01*
X0080807Y0113620D02*
X0081414Y0114227D01*
X0082627Y0114227D01*
X0083234Y0113620D01*
X0083234Y0111194D01*
X0084433Y0111194D02*
X0084433Y0113620D01*
X0086859Y0111194D01*
X0086253Y0110587D01*
X0085039Y0110587D01*
X0084433Y0111194D01*
X0086859Y0111194D02*
X0086859Y0113620D01*
X0086253Y0114227D01*
X0085039Y0114227D01*
X0084433Y0113620D01*
X0088058Y0110587D02*
X0090484Y0110587D01*
X0089271Y0110587D02*
X0089271Y0114227D01*
X0090484Y0113014D01*
X0088035Y0120126D02*
X0085608Y0122553D01*
X0085608Y0123160D01*
X0086215Y0123766D01*
X0087428Y0123766D01*
X0088035Y0123160D01*
X0088035Y0120126D02*
X0085608Y0120126D01*
X0084410Y0120126D02*
X0084410Y0123766D01*
X0082590Y0122553D02*
X0084410Y0121340D01*
X0082590Y0120126D01*
X0081389Y0120126D02*
X0081389Y0120733D01*
X0078962Y0123160D01*
X0078962Y0123766D01*
X0081389Y0123766D01*
X0072748Y0120819D02*
X0072748Y0118393D01*
X0072141Y0117786D01*
X0070928Y0117786D01*
X0070321Y0118393D01*
X0069123Y0117786D02*
X0066696Y0117786D01*
X0067909Y0117786D02*
X0067909Y0121426D01*
X0069123Y0120213D01*
X0070321Y0120819D02*
X0070928Y0121426D01*
X0072141Y0121426D01*
X0072748Y0120819D01*
X0065497Y0120819D02*
X0065497Y0120213D01*
X0064891Y0119606D01*
X0063071Y0119606D01*
X0063071Y0120819D02*
X0063677Y0121426D01*
X0064891Y0121426D01*
X0065497Y0120819D01*
X0063071Y0120819D02*
X0063071Y0118393D01*
X0063677Y0117786D01*
X0064891Y0117786D01*
X0065497Y0118393D01*
X0055031Y0117605D02*
X0054424Y0116998D01*
X0053211Y0116998D01*
X0052604Y0117605D01*
X0051406Y0117605D02*
X0050799Y0116998D01*
X0049586Y0116998D01*
X0048979Y0117605D01*
X0048979Y0118212D01*
X0049586Y0118818D01*
X0051406Y0118818D01*
X0051406Y0117605D01*
X0051406Y0118818D02*
X0050193Y0120032D01*
X0048979Y0120639D01*
X0052604Y0120032D02*
X0053211Y0120639D01*
X0054424Y0120639D01*
X0055031Y0120032D01*
X0055031Y0117605D01*
X0036330Y0119304D02*
X0035724Y0118698D01*
X0034510Y0118698D01*
X0033904Y0119304D01*
X0033904Y0122338D01*
X0032705Y0122338D02*
X0032705Y0120518D01*
X0031492Y0121124D01*
X0030885Y0121124D01*
X0030278Y0120518D01*
X0030278Y0119304D01*
X0030885Y0118698D01*
X0032099Y0118698D01*
X0032705Y0119304D01*
X0032705Y0122338D02*
X0030278Y0122338D01*
X0026625Y0123142D02*
X0024198Y0123142D01*
X0025412Y0123142D02*
X0025412Y0126782D01*
X0026625Y0125569D01*
X0023000Y0126176D02*
X0023000Y0123749D01*
X0020573Y0126176D01*
X0020573Y0123749D01*
X0021180Y0123142D01*
X0022393Y0123142D01*
X0023000Y0123749D01*
X0023000Y0126176D02*
X0022393Y0126782D01*
X0021180Y0126782D01*
X0020573Y0126176D01*
X0019375Y0126782D02*
X0019375Y0123142D01*
X0019375Y0124355D02*
X0017555Y0125569D01*
X0019375Y0124355D02*
X0017555Y0123142D01*
X0016124Y0118113D02*
X0014304Y0118113D01*
X0013697Y0117506D01*
X0013697Y0116293D01*
X0014304Y0115686D01*
X0016124Y0115686D01*
X0016124Y0114473D02*
X0016124Y0118113D01*
X0014911Y0115686D02*
X0013697Y0114473D01*
X0012499Y0115080D02*
X0011892Y0114473D01*
X0010679Y0114473D01*
X0010072Y0115080D01*
X0010072Y0117506D01*
X0010679Y0118113D01*
X0011892Y0118113D01*
X0012499Y0117506D01*
X0012499Y0116900D01*
X0011892Y0116293D01*
X0010072Y0116293D01*
X0036330Y0119304D02*
X0036330Y0122338D01*
X0016124Y0137307D02*
X0016124Y0140948D01*
X0014304Y0140948D01*
X0013697Y0140341D01*
X0013697Y0139128D01*
X0014304Y0138521D01*
X0016124Y0138521D01*
X0014911Y0138521D02*
X0013697Y0137307D01*
X0012499Y0137914D02*
X0012499Y0138521D01*
X0011892Y0139128D01*
X0010679Y0139128D01*
X0010072Y0138521D01*
X0010072Y0137914D01*
X0010679Y0137307D01*
X0011892Y0137307D01*
X0012499Y0137914D01*
X0011892Y0139128D02*
X0012499Y0139734D01*
X0012499Y0140341D01*
X0011892Y0140948D01*
X0010679Y0140948D01*
X0010072Y0140341D01*
X0010072Y0139734D01*
X0010679Y0139128D01*
X0044361Y0171355D02*
X0046788Y0171355D01*
X0044361Y0173781D01*
X0044361Y0174388D01*
X0044968Y0174995D01*
X0046181Y0174995D01*
X0046788Y0174388D01*
X0047986Y0174995D02*
X0050413Y0174995D01*
X0049200Y0174995D02*
X0049200Y0171355D01*
X0065228Y0195874D02*
X0067048Y0197088D01*
X0065228Y0198301D01*
X0067048Y0199515D02*
X0067048Y0195874D01*
X0068246Y0195874D02*
X0070673Y0195874D01*
X0069459Y0195874D02*
X0069459Y0199515D01*
X0070673Y0198301D01*
X0070673Y0202607D02*
X0070673Y0206247D01*
X0068853Y0206247D01*
X0068246Y0205640D01*
X0068246Y0204427D01*
X0068853Y0203820D01*
X0070673Y0203820D01*
X0069459Y0203820D02*
X0068246Y0202607D01*
X0067048Y0202607D02*
X0064621Y0205033D01*
X0064621Y0205640D01*
X0065228Y0206247D01*
X0066441Y0206247D01*
X0067048Y0205640D01*
X0067048Y0202607D02*
X0064621Y0202607D01*
X0085093Y0207725D02*
X0087520Y0207725D01*
X0088719Y0207725D02*
X0089932Y0208938D01*
X0089325Y0208938D02*
X0091145Y0208938D01*
X0091145Y0207725D02*
X0091145Y0211365D01*
X0089325Y0211365D01*
X0088719Y0210758D01*
X0088719Y0209545D01*
X0089325Y0208938D01*
X0087520Y0210152D02*
X0086307Y0211365D01*
X0086307Y0207725D01*
X0087520Y0198333D02*
X0087520Y0194693D01*
X0088719Y0194693D02*
X0091145Y0194693D01*
X0089932Y0194693D02*
X0089932Y0198333D01*
X0091145Y0197120D01*
X0087520Y0195907D02*
X0085700Y0194693D01*
X0087520Y0195907D02*
X0085700Y0197120D01*
X0089550Y0182097D02*
X0089550Y0181491D01*
X0091977Y0179064D01*
X0091977Y0178457D01*
X0093175Y0179064D02*
X0093782Y0178457D01*
X0094995Y0178457D01*
X0095602Y0179064D01*
X0095602Y0181491D01*
X0094995Y0182097D01*
X0093782Y0182097D01*
X0093175Y0181491D01*
X0091977Y0182097D02*
X0089550Y0182097D01*
X0092749Y0169309D02*
X0092142Y0168702D01*
X0092142Y0166882D01*
X0094569Y0166882D02*
X0094569Y0169309D01*
X0092749Y0169309D01*
X0095767Y0169916D02*
X0095767Y0167489D01*
X0096374Y0166882D01*
X0097588Y0166882D01*
X0098194Y0167489D01*
X0095767Y0169916D01*
X0096374Y0170522D01*
X0097588Y0170522D01*
X0098194Y0169916D01*
X0098194Y0167489D01*
X0099393Y0167489D02*
X0099999Y0166882D01*
X0101213Y0166882D01*
X0101819Y0167489D01*
X0099393Y0169916D01*
X0099393Y0167489D01*
X0101819Y0167489D02*
X0101819Y0169916D01*
X0101213Y0170522D01*
X0099999Y0170522D01*
X0099393Y0169916D01*
X0103018Y0166882D02*
X0105444Y0166882D01*
X0104231Y0166882D02*
X0104231Y0170522D01*
X0105444Y0169309D01*
X0133405Y0161143D02*
X0133405Y0159930D01*
X0134012Y0159323D01*
X0135832Y0159323D01*
X0137030Y0159323D02*
X0139457Y0159323D01*
X0137030Y0161750D01*
X0137030Y0162357D01*
X0137637Y0162963D01*
X0138850Y0162963D01*
X0139457Y0162357D01*
X0140656Y0162357D02*
X0141262Y0162963D01*
X0142476Y0162963D01*
X0143082Y0162357D01*
X0140656Y0162357D02*
X0140656Y0161750D01*
X0143082Y0159323D01*
X0140656Y0159323D01*
X0135832Y0158110D02*
X0135832Y0161750D01*
X0134012Y0161750D01*
X0133405Y0161143D01*
X0144511Y0172292D02*
X0145117Y0171685D01*
X0146331Y0171685D01*
X0146937Y0172292D01*
X0148136Y0172292D02*
X0148743Y0171685D01*
X0149956Y0171685D01*
X0150563Y0172292D01*
X0150563Y0174719D01*
X0149956Y0175326D01*
X0148743Y0175326D01*
X0148136Y0174719D01*
X0146937Y0175326D02*
X0146937Y0173505D01*
X0145724Y0174112D01*
X0145117Y0174112D01*
X0144511Y0173505D01*
X0144511Y0172292D01*
X0144511Y0175326D02*
X0146937Y0175326D01*
X0157200Y0186170D02*
X0159626Y0186170D01*
X0158413Y0186170D02*
X0158413Y0189810D01*
X0159626Y0188596D01*
X0160825Y0189203D02*
X0162038Y0187990D01*
X0162038Y0186170D01*
X0162038Y0187990D02*
X0163252Y0189203D01*
X0163252Y0189810D01*
X0160825Y0189810D02*
X0160825Y0189203D01*
X0173123Y0190536D02*
X0173123Y0192356D01*
X0173730Y0192963D01*
X0175550Y0192963D01*
X0175550Y0190536D01*
X0176748Y0191143D02*
X0176748Y0193569D01*
X0179175Y0191143D01*
X0178568Y0190536D01*
X0177355Y0190536D01*
X0176748Y0191143D01*
X0176748Y0193569D02*
X0177355Y0194176D01*
X0178568Y0194176D01*
X0179175Y0193569D01*
X0179175Y0191143D01*
X0180374Y0191143D02*
X0180980Y0190536D01*
X0182194Y0190536D01*
X0182800Y0191143D01*
X0180374Y0193569D01*
X0180374Y0191143D01*
X0182800Y0191143D02*
X0182800Y0193569D01*
X0182194Y0194176D01*
X0180980Y0194176D01*
X0180374Y0193569D01*
X0183999Y0190536D02*
X0186425Y0190536D01*
X0185212Y0190536D02*
X0185212Y0194176D01*
X0186425Y0192963D01*
X0196035Y0189105D02*
X0196035Y0188498D01*
X0196642Y0187891D01*
X0196035Y0187285D01*
X0196035Y0186678D01*
X0196642Y0186071D01*
X0197855Y0186071D01*
X0198462Y0186678D01*
X0199660Y0186071D02*
X0202087Y0186071D01*
X0203285Y0186071D02*
X0204499Y0187285D01*
X0203892Y0187285D02*
X0205712Y0187285D01*
X0205712Y0186071D02*
X0205712Y0189711D01*
X0203892Y0189711D01*
X0203285Y0189105D01*
X0203285Y0187891D01*
X0203892Y0187285D01*
X0202087Y0188498D02*
X0200874Y0189711D01*
X0200874Y0186071D01*
X0198462Y0189105D02*
X0197855Y0189711D01*
X0196642Y0189711D01*
X0196035Y0189105D01*
X0196642Y0187891D02*
X0197249Y0187891D01*
X0191639Y0181892D02*
X0190426Y0181892D01*
X0189819Y0181286D01*
X0188621Y0180072D02*
X0186194Y0180072D01*
X0186801Y0178252D02*
X0186801Y0181892D01*
X0188621Y0180072D01*
X0189819Y0178859D02*
X0190426Y0178252D01*
X0191639Y0178252D01*
X0192246Y0178859D01*
X0192246Y0181286D01*
X0191639Y0181892D01*
X0191639Y0175357D02*
X0190426Y0175357D01*
X0189819Y0174750D01*
X0189819Y0174144D01*
X0192246Y0171717D01*
X0189819Y0171717D01*
X0188621Y0171717D02*
X0186801Y0171717D01*
X0186194Y0172324D01*
X0186194Y0173537D01*
X0186801Y0174144D01*
X0188621Y0174144D01*
X0188621Y0170504D01*
X0193444Y0171717D02*
X0195871Y0171717D01*
X0193444Y0174144D01*
X0193444Y0174750D01*
X0194051Y0175357D01*
X0195264Y0175357D01*
X0195871Y0174750D01*
X0192246Y0174750D02*
X0191639Y0175357D01*
X0196642Y0167199D02*
X0198462Y0165985D01*
X0196642Y0164772D01*
X0198462Y0164772D02*
X0198462Y0168412D01*
X0199660Y0167805D02*
X0202087Y0165379D01*
X0201480Y0164772D01*
X0200267Y0164772D01*
X0199660Y0165379D01*
X0199660Y0167805D01*
X0200267Y0168412D01*
X0201480Y0168412D01*
X0202087Y0167805D01*
X0202087Y0165379D01*
X0203285Y0164772D02*
X0205712Y0164772D01*
X0204499Y0164772D02*
X0204499Y0168412D01*
X0205712Y0167199D01*
X0172307Y0159285D02*
X0171093Y0160499D01*
X0171093Y0156859D01*
X0169880Y0156859D02*
X0172307Y0156859D01*
X0168682Y0157465D02*
X0168682Y0158679D01*
X0166862Y0158679D01*
X0166255Y0158072D01*
X0166255Y0157465D01*
X0166862Y0156859D01*
X0168075Y0156859D01*
X0168682Y0157465D01*
X0168682Y0158679D02*
X0167468Y0159892D01*
X0166255Y0160499D01*
X0165056Y0160499D02*
X0163843Y0159285D01*
X0162630Y0160499D01*
X0162630Y0156859D01*
X0161431Y0156859D02*
X0161431Y0160499D01*
X0161431Y0158679D02*
X0159005Y0158679D01*
X0157806Y0159285D02*
X0155379Y0159285D01*
X0157806Y0156859D01*
X0155379Y0156859D01*
X0159005Y0156859D02*
X0159005Y0160499D01*
X0165056Y0160499D02*
X0165056Y0156859D01*
X0155228Y0122963D02*
X0153408Y0122963D01*
X0152801Y0122357D01*
X0152801Y0121143D01*
X0153408Y0120537D01*
X0155228Y0120537D01*
X0154015Y0120537D02*
X0152801Y0119323D01*
X0151603Y0119323D02*
X0149176Y0119323D01*
X0150389Y0119323D02*
X0150389Y0122963D01*
X0151603Y0121750D01*
X0147978Y0121143D02*
X0146158Y0121143D01*
X0145551Y0120537D01*
X0145551Y0119930D01*
X0146158Y0119323D01*
X0147371Y0119323D01*
X0147978Y0119930D01*
X0147978Y0121143D01*
X0146764Y0122357D01*
X0145551Y0122963D01*
X0142417Y0117050D02*
X0141203Y0117050D01*
X0140596Y0116443D01*
X0140596Y0115837D01*
X0141203Y0115230D01*
X0140596Y0114623D01*
X0140596Y0114017D01*
X0141203Y0113410D01*
X0142417Y0113410D01*
X0143023Y0114017D01*
X0141810Y0115230D02*
X0141203Y0115230D01*
X0139398Y0114623D02*
X0137578Y0113410D01*
X0136377Y0114017D02*
X0135770Y0113410D01*
X0134557Y0113410D01*
X0133950Y0114017D01*
X0133950Y0114623D01*
X0134557Y0115230D01*
X0135164Y0115230D01*
X0134557Y0115230D02*
X0133950Y0115837D01*
X0133950Y0116443D01*
X0134557Y0117050D01*
X0135770Y0117050D01*
X0136377Y0116443D01*
X0137578Y0115837D02*
X0139398Y0114623D01*
X0139398Y0113410D02*
X0139398Y0117050D01*
X0142417Y0117050D02*
X0143023Y0116443D01*
X0155228Y0119323D02*
X0155228Y0122963D01*
X0159875Y0105318D02*
X0159875Y0104711D01*
X0162302Y0102284D01*
X0162302Y0101678D01*
X0163500Y0101678D02*
X0165927Y0101678D01*
X0167125Y0101678D02*
X0168339Y0102891D01*
X0167732Y0102891D02*
X0169552Y0102891D01*
X0169552Y0101678D02*
X0169552Y0105318D01*
X0167732Y0105318D01*
X0167125Y0104711D01*
X0167125Y0103498D01*
X0167732Y0102891D01*
X0165927Y0104104D02*
X0164714Y0105318D01*
X0164714Y0101678D01*
X0162302Y0105318D02*
X0159875Y0105318D01*
X0171141Y0098924D02*
X0173568Y0096497D01*
X0172962Y0095890D01*
X0171748Y0095890D01*
X0171141Y0096497D01*
X0171141Y0098924D01*
X0171748Y0099530D01*
X0172962Y0099530D01*
X0173568Y0098924D01*
X0173568Y0096497D01*
X0174767Y0095890D02*
X0177193Y0095890D01*
X0174767Y0098317D01*
X0174767Y0098924D01*
X0175373Y0099530D01*
X0176587Y0099530D01*
X0177193Y0098924D01*
X0178392Y0099530D02*
X0179605Y0098924D01*
X0180819Y0097710D01*
X0178998Y0097710D01*
X0178392Y0097104D01*
X0178392Y0096497D01*
X0178998Y0095890D01*
X0180212Y0095890D01*
X0180819Y0096497D01*
X0180819Y0097710D01*
X0180803Y0107709D02*
X0182017Y0107709D01*
X0182623Y0108316D01*
X0182623Y0109529D02*
X0181410Y0110136D01*
X0180803Y0110136D01*
X0180197Y0109529D01*
X0180197Y0108316D01*
X0180803Y0107709D01*
X0182623Y0109529D02*
X0182623Y0111349D01*
X0180197Y0111349D01*
X0185035Y0111349D02*
X0185035Y0107709D01*
X0186248Y0107709D02*
X0183822Y0107709D01*
X0186248Y0110136D02*
X0185035Y0111349D01*
X0187447Y0110742D02*
X0187447Y0109529D01*
X0188054Y0108922D01*
X0189874Y0108922D01*
X0189874Y0107709D02*
X0189874Y0111349D01*
X0188054Y0111349D01*
X0187447Y0110742D01*
X0188660Y0108922D02*
X0187447Y0107709D01*
X0184362Y0087137D02*
X0182542Y0087137D01*
X0181935Y0086530D01*
X0181935Y0085317D01*
X0182542Y0084710D01*
X0184362Y0084710D01*
X0183148Y0084710D02*
X0181935Y0083496D01*
X0180737Y0083496D02*
X0178310Y0083496D01*
X0179523Y0083496D02*
X0179523Y0087137D01*
X0180737Y0085923D01*
X0177112Y0085317D02*
X0174685Y0085317D01*
X0175291Y0087137D02*
X0177112Y0085317D01*
X0175291Y0087137D02*
X0175291Y0083496D01*
X0174898Y0074530D02*
X0174291Y0073924D01*
X0176718Y0071497D01*
X0176111Y0070890D01*
X0174898Y0070890D01*
X0174291Y0071497D01*
X0174291Y0073924D01*
X0174898Y0074530D02*
X0176111Y0074530D01*
X0176718Y0073924D01*
X0176718Y0071497D01*
X0177916Y0071497D02*
X0178523Y0070890D01*
X0179736Y0070890D01*
X0180343Y0071497D01*
X0181541Y0071497D02*
X0182148Y0070890D01*
X0183361Y0070890D01*
X0183968Y0071497D01*
X0182755Y0072710D02*
X0182148Y0072710D01*
X0181541Y0072104D01*
X0181541Y0071497D01*
X0182148Y0072710D02*
X0181541Y0073317D01*
X0181541Y0073924D01*
X0182148Y0074530D01*
X0183361Y0074530D01*
X0183968Y0073924D01*
X0180343Y0073924D02*
X0179736Y0074530D01*
X0178523Y0074530D01*
X0177916Y0073924D01*
X0177916Y0073317D01*
X0178523Y0072710D01*
X0177916Y0072104D01*
X0177916Y0071497D01*
X0178523Y0072710D02*
X0179130Y0072710D01*
X0184362Y0083496D02*
X0184362Y0087137D01*
X0153259Y0086940D02*
X0153259Y0083300D01*
X0153259Y0084513D02*
X0151439Y0084513D01*
X0150833Y0085120D01*
X0150833Y0086333D01*
X0151439Y0086940D01*
X0153259Y0086940D01*
X0152046Y0084513D02*
X0150833Y0083300D01*
X0149634Y0083300D02*
X0147208Y0083300D01*
X0148421Y0083300D02*
X0148421Y0086940D01*
X0149634Y0085726D01*
X0146009Y0085726D02*
X0146009Y0086333D01*
X0145402Y0086940D01*
X0144189Y0086940D01*
X0143582Y0086333D01*
X0143582Y0085726D01*
X0144189Y0085120D01*
X0145402Y0085120D01*
X0146009Y0085726D01*
X0145402Y0085120D02*
X0146009Y0084513D01*
X0146009Y0083906D01*
X0145402Y0083300D01*
X0144189Y0083300D01*
X0143582Y0083906D01*
X0143582Y0084513D01*
X0144189Y0085120D01*
X0141235Y0081026D02*
X0141842Y0080420D01*
X0141235Y0081026D02*
X0140022Y0081026D01*
X0139415Y0080420D01*
X0139415Y0079813D01*
X0141842Y0077386D01*
X0139415Y0077386D01*
X0138217Y0077386D02*
X0138217Y0081026D01*
X0136397Y0079813D02*
X0138217Y0078600D01*
X0136397Y0077386D01*
X0144665Y0093922D02*
X0146485Y0095135D01*
X0144665Y0096348D01*
X0146485Y0097562D02*
X0146485Y0093922D01*
X0147683Y0093922D02*
X0150110Y0093922D01*
X0148896Y0093922D02*
X0148896Y0097562D01*
X0150110Y0096348D01*
X0086854Y0139851D02*
X0086854Y0143491D01*
X0085034Y0143491D01*
X0084427Y0142884D01*
X0084427Y0141671D01*
X0085034Y0141064D01*
X0086854Y0141064D01*
X0085641Y0141064D02*
X0084427Y0139851D01*
X0083229Y0141671D02*
X0081409Y0143491D01*
X0081409Y0139851D01*
X0080802Y0141671D02*
X0083229Y0141671D01*
X0019932Y0096435D02*
X0018719Y0097648D01*
X0018719Y0094008D01*
X0019932Y0094008D02*
X0017506Y0094008D01*
X0016307Y0094615D02*
X0015700Y0094008D01*
X0014487Y0094008D01*
X0013880Y0094615D01*
X0013880Y0097042D01*
X0016307Y0094615D01*
X0016307Y0097042D01*
X0015700Y0097648D01*
X0014487Y0097648D01*
X0013880Y0097042D01*
X0012682Y0097648D02*
X0012682Y0094008D01*
X0012682Y0095222D02*
X0010862Y0094008D01*
X0012682Y0095222D02*
X0010862Y0096435D01*
X0030524Y0085265D02*
X0030524Y0083445D01*
X0030524Y0085265D02*
X0031131Y0085872D01*
X0032951Y0085872D01*
X0032951Y0083445D01*
X0034149Y0084052D02*
X0034756Y0083445D01*
X0035969Y0083445D01*
X0036576Y0084052D01*
X0034149Y0086479D01*
X0034149Y0084052D01*
X0034149Y0086479D02*
X0034756Y0087085D01*
X0035969Y0087085D01*
X0036576Y0086479D01*
X0036576Y0084052D01*
X0037775Y0084052D02*
X0037775Y0086479D01*
X0040201Y0084052D01*
X0039595Y0083445D01*
X0038381Y0083445D01*
X0037775Y0084052D01*
X0040201Y0084052D02*
X0040201Y0086479D01*
X0039595Y0087085D01*
X0038381Y0087085D01*
X0037775Y0086479D01*
X0037562Y0089439D02*
X0039989Y0089439D01*
X0038775Y0089439D02*
X0038775Y0093079D01*
X0039989Y0091866D01*
X0041187Y0092473D02*
X0041794Y0093079D01*
X0043007Y0093079D01*
X0043614Y0092473D01*
X0043614Y0090046D01*
X0043007Y0089439D01*
X0041794Y0089439D01*
X0041187Y0090046D01*
X0042613Y0087085D02*
X0042613Y0083445D01*
X0043826Y0083445D02*
X0041400Y0083445D01*
X0043826Y0085872D02*
X0042613Y0087085D01*
X0036364Y0090046D02*
X0036364Y0090653D01*
X0035757Y0091259D01*
X0034543Y0091259D01*
X0033937Y0090653D01*
X0033937Y0090046D01*
X0034543Y0089439D01*
X0035757Y0089439D01*
X0036364Y0090046D01*
X0035757Y0091259D02*
X0036364Y0091866D01*
X0036364Y0092473D01*
X0035757Y0093079D01*
X0034543Y0093079D01*
X0033937Y0092473D01*
X0033937Y0091866D01*
X0034543Y0091259D01*
X0036299Y0047410D02*
X0036299Y0046804D01*
X0038726Y0044377D01*
X0038726Y0043770D01*
X0039924Y0043770D02*
X0042351Y0043770D01*
X0041137Y0043770D02*
X0041137Y0047410D01*
X0042351Y0046197D01*
X0043549Y0046804D02*
X0044156Y0047410D01*
X0045369Y0047410D01*
X0045976Y0046804D01*
X0045976Y0044377D01*
X0045369Y0043770D01*
X0044156Y0043770D01*
X0043549Y0044377D01*
X0043975Y0041416D02*
X0045188Y0041416D01*
X0045795Y0040809D01*
X0043975Y0041416D02*
X0043368Y0040809D01*
X0043368Y0040203D01*
X0045795Y0037776D01*
X0043368Y0037776D01*
X0042170Y0037776D02*
X0039743Y0040203D01*
X0039743Y0040809D01*
X0040350Y0041416D01*
X0041563Y0041416D01*
X0042170Y0040809D01*
X0042170Y0037776D02*
X0039743Y0037776D01*
X0038545Y0037776D02*
X0036725Y0037776D01*
X0036118Y0038383D01*
X0036118Y0039596D01*
X0036725Y0040203D01*
X0038545Y0040203D01*
X0038545Y0036563D01*
X0038726Y0047410D02*
X0036299Y0047410D01*
X0235767Y0137883D02*
X0236374Y0137276D01*
X0238194Y0137276D01*
X0239393Y0137276D02*
X0241819Y0137276D01*
X0239393Y0139703D01*
X0239393Y0140309D01*
X0239999Y0140916D01*
X0241213Y0140916D01*
X0241819Y0140309D01*
X0243018Y0140309D02*
X0243624Y0140916D01*
X0244838Y0140916D01*
X0245444Y0140309D01*
X0243018Y0140309D02*
X0243018Y0139703D01*
X0245444Y0137276D01*
X0243018Y0137276D01*
X0238194Y0136063D02*
X0238194Y0139703D01*
X0236374Y0139703D01*
X0235767Y0139096D01*
X0235767Y0137883D01*
X0238818Y0151607D02*
X0240032Y0151607D01*
X0240638Y0152213D01*
X0241837Y0152213D02*
X0242443Y0151607D01*
X0243657Y0151607D01*
X0244263Y0152213D01*
X0244263Y0154640D01*
X0243657Y0155247D01*
X0242443Y0155247D01*
X0241837Y0154640D01*
X0240638Y0154640D02*
X0240032Y0155247D01*
X0238818Y0155247D01*
X0238212Y0154640D01*
X0238212Y0154033D01*
X0238818Y0153427D01*
X0238212Y0152820D01*
X0238212Y0152213D01*
X0238818Y0151607D01*
X0238818Y0153427D02*
X0239425Y0153427D01*
X0257466Y0131726D02*
X0259893Y0129300D01*
X0257466Y0129300D01*
X0257466Y0131726D02*
X0259893Y0131726D01*
X0261091Y0131120D02*
X0263518Y0131120D01*
X0263518Y0129300D02*
X0263518Y0132940D01*
X0264716Y0132940D02*
X0264716Y0129300D01*
X0267143Y0129300D02*
X0267143Y0132940D01*
X0265930Y0131726D01*
X0264716Y0132940D01*
X0261091Y0132940D02*
X0261091Y0129300D01*
X0268341Y0129906D02*
X0268341Y0130513D01*
X0268948Y0131120D01*
X0270768Y0131120D01*
X0270768Y0129906D01*
X0270161Y0129300D01*
X0268948Y0129300D01*
X0268341Y0129906D01*
X0269555Y0132333D02*
X0268341Y0132940D01*
X0269555Y0132333D02*
X0270768Y0131120D01*
X0271967Y0129300D02*
X0274393Y0129300D01*
X0273180Y0129300D02*
X0273180Y0132940D01*
X0274393Y0131726D01*
X0284193Y0130041D02*
X0284193Y0128828D01*
X0284799Y0128221D01*
X0286619Y0128221D01*
X0287818Y0128221D02*
X0290245Y0128221D01*
X0287818Y0130648D01*
X0287818Y0131254D01*
X0288424Y0131861D01*
X0289638Y0131861D01*
X0290245Y0131254D01*
X0291443Y0131254D02*
X0292050Y0131861D01*
X0293263Y0131861D01*
X0293870Y0131254D01*
X0291443Y0131254D02*
X0291443Y0130648D01*
X0293870Y0128221D01*
X0291443Y0128221D01*
X0286619Y0127008D02*
X0286619Y0130648D01*
X0284799Y0130648D01*
X0284193Y0130041D01*
X0288999Y0142945D02*
X0291426Y0142945D01*
X0288999Y0145372D01*
X0288999Y0145979D01*
X0289606Y0146585D01*
X0290819Y0146585D01*
X0291426Y0145979D01*
X0292624Y0145979D02*
X0293231Y0146585D01*
X0294444Y0146585D01*
X0295051Y0145979D01*
X0295051Y0143552D01*
X0294444Y0142945D01*
X0293231Y0142945D01*
X0292624Y0143552D01*
X0276723Y0151130D02*
X0276723Y0152950D01*
X0275510Y0154164D01*
X0275510Y0154770D01*
X0274311Y0154164D02*
X0273705Y0154770D01*
X0272491Y0154770D01*
X0271885Y0154164D01*
X0271885Y0153557D01*
X0274311Y0151130D01*
X0271885Y0151130D01*
X0276723Y0152950D02*
X0277937Y0154164D01*
X0277937Y0154770D01*
X0266334Y0088396D02*
X0266941Y0087790D01*
X0266941Y0085363D01*
X0266334Y0084756D01*
X0265120Y0084756D01*
X0264514Y0085363D01*
X0263315Y0084756D02*
X0260889Y0084756D01*
X0262102Y0084756D02*
X0262102Y0088396D01*
X0263315Y0087183D01*
X0264514Y0087790D02*
X0265120Y0088396D01*
X0266334Y0088396D01*
X0273225Y0081152D02*
X0272618Y0080546D01*
X0275045Y0078119D01*
X0274438Y0077512D01*
X0273225Y0077512D01*
X0272618Y0078119D01*
X0272618Y0080546D01*
X0273225Y0081152D02*
X0274438Y0081152D01*
X0275045Y0080546D01*
X0275045Y0078119D01*
X0276243Y0078119D02*
X0276850Y0077512D01*
X0278063Y0077512D01*
X0278670Y0078119D01*
X0276243Y0080546D01*
X0276243Y0078119D01*
X0276243Y0080546D02*
X0276850Y0081152D01*
X0278063Y0081152D01*
X0278670Y0080546D01*
X0278670Y0078119D01*
X0279868Y0077512D02*
X0282295Y0077512D01*
X0281082Y0077512D02*
X0281082Y0081152D01*
X0282295Y0079939D01*
X0271419Y0079939D02*
X0271419Y0077512D01*
X0268993Y0077512D02*
X0268993Y0079332D01*
X0269599Y0079939D01*
X0271419Y0079939D01*
X0282181Y0032450D02*
X0284001Y0030630D01*
X0281575Y0030630D01*
X0282181Y0032450D02*
X0282181Y0028809D01*
X0285200Y0028809D02*
X0287626Y0028809D01*
X0286413Y0028809D02*
X0286413Y0032450D01*
X0287626Y0031236D01*
X0288825Y0031843D02*
X0289432Y0032450D01*
X0290645Y0032450D01*
X0291252Y0031843D01*
X0291252Y0029416D01*
X0290645Y0028809D01*
X0289432Y0028809D01*
X0288825Y0029416D01*
X0288807Y0019369D02*
X0287594Y0019369D01*
X0286987Y0018762D01*
X0289414Y0016335D01*
X0288807Y0015729D01*
X0287594Y0015729D01*
X0286987Y0016335D01*
X0286987Y0018762D01*
X0285789Y0018762D02*
X0285182Y0019369D01*
X0283969Y0019369D01*
X0283362Y0018762D01*
X0285789Y0016335D01*
X0285182Y0015729D01*
X0283969Y0015729D01*
X0283362Y0016335D01*
X0283362Y0018762D01*
X0282164Y0018155D02*
X0280344Y0018155D01*
X0279737Y0017549D01*
X0279737Y0015729D01*
X0282164Y0015729D02*
X0282164Y0018155D01*
X0285789Y0018762D02*
X0285789Y0016335D01*
X0289414Y0016335D02*
X0289414Y0018762D01*
X0288807Y0019369D01*
X0291826Y0019369D02*
X0291826Y0015729D01*
X0293039Y0015729D02*
X0290612Y0015729D01*
X0293039Y0018155D02*
X0291826Y0019369D01*
X0171295Y0204835D02*
X0170081Y0204835D01*
X0169474Y0205442D01*
X0168276Y0205442D02*
X0168276Y0206048D01*
X0167669Y0206655D01*
X0166456Y0206655D01*
X0165849Y0206048D01*
X0165849Y0205442D01*
X0166456Y0204835D01*
X0167669Y0204835D01*
X0168276Y0205442D01*
X0167669Y0206655D02*
X0168276Y0207262D01*
X0168276Y0207868D01*
X0167669Y0208475D01*
X0166456Y0208475D01*
X0165849Y0207868D01*
X0165849Y0207262D01*
X0166456Y0206655D01*
X0169474Y0207868D02*
X0170081Y0208475D01*
X0171295Y0208475D01*
X0171901Y0207868D01*
X0171901Y0205442D01*
X0171295Y0204835D01*
X0152781Y0210345D02*
X0149645Y0213481D01*
X0152781Y0210345D01*
X0151213Y0210345D02*
X0151213Y0213481D01*
X0151213Y0210345D01*
X0149645Y0210345D02*
X0152781Y0213481D01*
X0149645Y0210345D01*
X0149645Y0211913D02*
X0152781Y0211913D01*
X0149645Y0211913D01*
X0149619Y0244744D02*
X0149619Y0246565D01*
X0150225Y0247171D01*
X0152045Y0247171D01*
X0152045Y0244744D01*
X0153244Y0245351D02*
X0153851Y0244744D01*
X0155064Y0244744D01*
X0155671Y0245351D01*
X0153244Y0247778D01*
X0153244Y0245351D01*
X0155671Y0245351D02*
X0155671Y0247778D01*
X0155064Y0248385D01*
X0153851Y0248385D01*
X0153244Y0247778D01*
X0156869Y0247778D02*
X0156869Y0245351D01*
X0157476Y0244744D01*
X0158689Y0244744D01*
X0159296Y0245351D01*
X0156869Y0247778D01*
X0157476Y0248385D01*
X0158689Y0248385D01*
X0159296Y0247778D01*
X0159296Y0245351D01*
X0160494Y0244744D02*
X0162921Y0244744D01*
X0161708Y0244744D02*
X0161708Y0248385D01*
X0162921Y0247171D01*
X0160133Y0264124D02*
X0158920Y0264124D01*
X0158313Y0264731D01*
X0157115Y0264124D02*
X0154688Y0264124D01*
X0155901Y0264124D02*
X0155901Y0267765D01*
X0157115Y0266551D01*
X0158313Y0267158D02*
X0158920Y0267765D01*
X0160133Y0267765D01*
X0160740Y0267158D01*
X0160740Y0264731D01*
X0160133Y0264124D01*
X0153489Y0264731D02*
X0153489Y0267158D01*
X0152883Y0267765D01*
X0151669Y0267765D01*
X0151063Y0267158D01*
X0153489Y0264731D01*
X0152883Y0264124D01*
X0151669Y0264124D01*
X0151063Y0264731D01*
X0151063Y0267158D01*
X0123141Y0266095D02*
X0123141Y0263668D01*
X0122535Y0263061D01*
X0121321Y0263061D01*
X0120715Y0263668D01*
X0119516Y0263061D02*
X0117089Y0263061D01*
X0115891Y0263061D02*
X0113464Y0263061D01*
X0114678Y0263061D02*
X0114678Y0266702D01*
X0115891Y0265488D01*
X0118303Y0266702D02*
X0118303Y0263061D01*
X0119516Y0265488D02*
X0118303Y0266702D01*
X0120715Y0266095D02*
X0121321Y0266702D01*
X0122535Y0266702D01*
X0123141Y0266095D01*
X0118630Y0275965D02*
X0116203Y0275965D01*
X0117416Y0275965D02*
X0117416Y0279605D01*
X0118630Y0278392D01*
X0115004Y0278998D02*
X0115004Y0276572D01*
X0112578Y0278998D01*
X0112578Y0276572D01*
X0113184Y0275965D01*
X0114398Y0275965D01*
X0115004Y0276572D01*
X0115004Y0278998D02*
X0114398Y0279605D01*
X0113184Y0279605D01*
X0112578Y0278998D01*
X0111379Y0278998D02*
X0111379Y0276572D01*
X0108953Y0278998D01*
X0108953Y0276572D01*
X0109559Y0275965D01*
X0110773Y0275965D01*
X0111379Y0276572D01*
X0111379Y0278998D02*
X0110773Y0279605D01*
X0109559Y0279605D01*
X0108953Y0278998D01*
X0107754Y0278392D02*
X0105934Y0278392D01*
X0105327Y0277785D01*
X0105327Y0275965D01*
X0107754Y0275965D02*
X0107754Y0278392D01*
X0100243Y0288552D02*
X0099030Y0288552D01*
X0098423Y0289158D01*
X0098423Y0292192D01*
X0097225Y0290372D02*
X0094798Y0290372D01*
X0095405Y0292192D02*
X0097225Y0290372D01*
X0095405Y0288552D02*
X0095405Y0292192D01*
X0100850Y0292192D02*
X0100850Y0289158D01*
X0100243Y0288552D01*
X0114796Y0293176D02*
X0117223Y0293176D01*
X0114796Y0295602D01*
X0114796Y0296209D01*
X0115403Y0296816D01*
X0116617Y0296816D01*
X0117223Y0296209D01*
X0119635Y0296816D02*
X0119635Y0293176D01*
X0120848Y0293176D02*
X0118422Y0293176D01*
X0120848Y0295602D02*
X0119635Y0296816D01*
X0122047Y0296209D02*
X0122653Y0296816D01*
X0123867Y0296816D01*
X0124473Y0296209D01*
X0124473Y0293782D01*
X0123867Y0293176D01*
X0122653Y0293176D01*
X0122047Y0293782D01*
X0134562Y0304513D02*
X0135169Y0303906D01*
X0136382Y0303906D01*
X0136989Y0304513D01*
X0138187Y0304513D02*
X0138187Y0307546D01*
X0136989Y0306939D02*
X0136382Y0307546D01*
X0135169Y0307546D01*
X0134562Y0306939D01*
X0134562Y0306333D01*
X0135169Y0305726D01*
X0134562Y0305119D01*
X0134562Y0304513D01*
X0135169Y0305726D02*
X0135775Y0305726D01*
X0138187Y0304513D02*
X0138794Y0303906D01*
X0140007Y0303906D01*
X0140614Y0304513D01*
X0140614Y0307546D01*
X0090779Y0268339D02*
X0090779Y0265912D01*
X0090172Y0265306D01*
X0088959Y0265306D01*
X0088352Y0265912D01*
X0087154Y0265306D02*
X0084727Y0265306D01*
X0085941Y0265306D02*
X0085941Y0268946D01*
X0087154Y0267732D01*
X0088352Y0268339D02*
X0088959Y0268946D01*
X0090172Y0268946D01*
X0090779Y0268339D01*
X0094126Y0262164D02*
X0093519Y0261557D01*
X0095946Y0259131D01*
X0095340Y0258524D01*
X0094126Y0258524D01*
X0093519Y0259131D01*
X0093519Y0261557D01*
X0094126Y0262164D02*
X0095340Y0262164D01*
X0095946Y0261557D01*
X0095946Y0259131D01*
X0097145Y0259131D02*
X0097751Y0258524D01*
X0098965Y0258524D01*
X0099571Y0259131D01*
X0097145Y0261557D01*
X0097145Y0259131D01*
X0099571Y0259131D02*
X0099571Y0261557D01*
X0098965Y0262164D01*
X0097751Y0262164D01*
X0097145Y0261557D01*
X0100770Y0258524D02*
X0103196Y0258524D01*
X0101983Y0258524D02*
X0101983Y0262164D01*
X0103196Y0260951D01*
X0092321Y0260951D02*
X0092321Y0258524D01*
X0089894Y0258524D02*
X0089894Y0260344D01*
X0090501Y0260951D01*
X0092321Y0260951D01*
X0083529Y0265912D02*
X0082922Y0265306D01*
X0081709Y0265306D01*
X0081102Y0265912D01*
X0081102Y0266519D01*
X0081709Y0267126D01*
X0082316Y0267126D01*
X0081709Y0267126D02*
X0081102Y0267732D01*
X0081102Y0268339D01*
X0081709Y0268946D01*
X0082922Y0268946D01*
X0083529Y0268339D01*
X0111233Y0246289D02*
X0111233Y0244469D01*
X0111233Y0246289D02*
X0111840Y0246896D01*
X0113660Y0246896D01*
X0113660Y0244469D01*
X0114858Y0245076D02*
X0115465Y0244469D01*
X0116678Y0244469D01*
X0117285Y0245076D01*
X0114858Y0247502D01*
X0114858Y0245076D01*
X0114858Y0247502D02*
X0115465Y0248109D01*
X0116678Y0248109D01*
X0117285Y0247502D01*
X0117285Y0245076D01*
X0118483Y0245076D02*
X0119090Y0244469D01*
X0120303Y0244469D01*
X0120910Y0245076D01*
X0118483Y0247502D01*
X0118483Y0245076D01*
X0118483Y0247502D02*
X0119090Y0248109D01*
X0120303Y0248109D01*
X0120910Y0247502D01*
X0120910Y0245076D01*
X0122108Y0244469D02*
X0124535Y0244469D01*
X0123322Y0244469D02*
X0123322Y0248109D01*
X0124535Y0246896D01*
X0056036Y0225612D02*
X0054822Y0226826D01*
X0054822Y0223185D01*
X0053609Y0223185D02*
X0056036Y0223185D01*
X0052410Y0223792D02*
X0052410Y0226219D01*
X0051804Y0226826D01*
X0050590Y0226826D01*
X0049984Y0226219D01*
X0052410Y0223792D01*
X0051804Y0223185D01*
X0050590Y0223185D01*
X0049984Y0223792D01*
X0049984Y0226219D01*
X0048785Y0226219D02*
X0048179Y0226826D01*
X0046965Y0226826D01*
X0046359Y0226219D01*
X0048785Y0223792D01*
X0048179Y0223185D01*
X0046965Y0223185D01*
X0046359Y0223792D01*
X0046359Y0226219D01*
X0045160Y0225612D02*
X0043340Y0225612D01*
X0042733Y0225005D01*
X0042733Y0223185D01*
X0045160Y0223185D02*
X0045160Y0225612D01*
X0048785Y0226219D02*
X0048785Y0223792D01*
X0047141Y0235502D02*
X0045928Y0235502D01*
X0045321Y0236109D01*
X0044123Y0235502D02*
X0041696Y0237929D01*
X0041696Y0238536D01*
X0042302Y0239142D01*
X0043516Y0239142D01*
X0044123Y0238536D01*
X0045321Y0238536D02*
X0045928Y0239142D01*
X0047141Y0239142D01*
X0047748Y0238536D01*
X0047748Y0236109D01*
X0047141Y0235502D01*
X0044123Y0235502D02*
X0041696Y0235502D01*
X0040497Y0236109D02*
X0038071Y0238536D01*
X0038071Y0236109D01*
X0038677Y0235502D01*
X0039891Y0235502D01*
X0040497Y0236109D01*
X0040497Y0238536D01*
X0039891Y0239142D01*
X0038677Y0239142D01*
X0038071Y0238536D01*
X0312575Y0284402D02*
X0312575Y0286222D01*
X0313182Y0286829D01*
X0315002Y0286829D01*
X0315002Y0284402D01*
X0316201Y0285009D02*
X0316201Y0287435D01*
X0318627Y0285009D01*
X0318021Y0284402D01*
X0316807Y0284402D01*
X0316201Y0285009D01*
X0318627Y0285009D02*
X0318627Y0287435D01*
X0318021Y0288042D01*
X0316807Y0288042D01*
X0316201Y0287435D01*
X0319826Y0287435D02*
X0322252Y0285009D01*
X0321646Y0284402D01*
X0320432Y0284402D01*
X0319826Y0285009D01*
X0319826Y0287435D01*
X0320432Y0288042D01*
X0321646Y0288042D01*
X0322252Y0287435D01*
X0322252Y0285009D01*
X0323451Y0284402D02*
X0325878Y0284402D01*
X0324664Y0284402D02*
X0324664Y0288042D01*
X0325878Y0286829D01*
X0324483Y0298733D02*
X0323270Y0298733D01*
X0322663Y0299339D01*
X0321465Y0299339D02*
X0320858Y0298733D01*
X0319645Y0298733D01*
X0319038Y0299339D01*
X0319038Y0301766D01*
X0319645Y0302373D01*
X0320858Y0302373D01*
X0321465Y0301766D01*
X0321465Y0301159D01*
X0320858Y0300553D01*
X0319038Y0300553D01*
X0322663Y0301766D02*
X0323270Y0302373D01*
X0324483Y0302373D01*
X0325090Y0301766D01*
X0325090Y0299339D01*
X0324483Y0298733D01*
D11*
X0320500Y0296638D02*
X0320500Y0290638D01*
X0169201Y0202346D02*
X0169201Y0196346D01*
X0165134Y0183638D02*
X0162772Y0183638D01*
X0157654Y0176157D02*
X0157654Y0171433D01*
X0162772Y0163953D02*
X0165134Y0163953D01*
X0170252Y0171433D02*
X0170252Y0176157D01*
X0177134Y0176421D02*
X0183134Y0176421D01*
X0151244Y0162248D02*
X0145244Y0162248D01*
X0103528Y0180122D02*
X0097528Y0180122D01*
X0040173Y0115272D02*
X0027969Y0115272D01*
X0027969Y0103165D02*
X0040173Y0103165D01*
X0071234Y0089898D02*
X0071236Y0089969D01*
X0071242Y0090040D01*
X0071252Y0090111D01*
X0071266Y0090181D01*
X0071283Y0090250D01*
X0071305Y0090318D01*
X0071330Y0090384D01*
X0071359Y0090450D01*
X0071391Y0090513D01*
X0071427Y0090575D01*
X0071466Y0090634D01*
X0071509Y0090691D01*
X0071555Y0090746D01*
X0071603Y0090798D01*
X0071655Y0090848D01*
X0071709Y0090894D01*
X0071765Y0090937D01*
X0071824Y0090977D01*
X0071885Y0091014D01*
X0071948Y0091047D01*
X0072013Y0091077D01*
X0072079Y0091103D01*
X0072147Y0091126D01*
X0072216Y0091144D01*
X0072286Y0091159D01*
X0072356Y0091170D01*
X0072427Y0091177D01*
X0072498Y0091180D01*
X0072569Y0091179D01*
X0072641Y0091174D01*
X0072711Y0091165D01*
X0072781Y0091152D01*
X0072851Y0091136D01*
X0072919Y0091115D01*
X0072986Y0091091D01*
X0073052Y0091063D01*
X0073115Y0091031D01*
X0073177Y0090996D01*
X0073237Y0090958D01*
X0073295Y0090916D01*
X0073351Y0090871D01*
X0073403Y0090823D01*
X0073453Y0090772D01*
X0073501Y0090719D01*
X0073545Y0090663D01*
X0073586Y0090605D01*
X0073623Y0090544D01*
X0073657Y0090482D01*
X0073688Y0090417D01*
X0073715Y0090351D01*
X0073739Y0090284D01*
X0073758Y0090215D01*
X0073774Y0090146D01*
X0073786Y0090076D01*
X0073794Y0090005D01*
X0073798Y0089934D01*
X0073798Y0089862D01*
X0073794Y0089791D01*
X0073786Y0089720D01*
X0073774Y0089650D01*
X0073758Y0089581D01*
X0073739Y0089512D01*
X0073715Y0089445D01*
X0073688Y0089379D01*
X0073657Y0089314D01*
X0073623Y0089252D01*
X0073586Y0089191D01*
X0073545Y0089133D01*
X0073501Y0089077D01*
X0073453Y0089024D01*
X0073403Y0088973D01*
X0073351Y0088925D01*
X0073295Y0088880D01*
X0073237Y0088838D01*
X0073177Y0088800D01*
X0073115Y0088765D01*
X0073052Y0088733D01*
X0072986Y0088705D01*
X0072919Y0088681D01*
X0072851Y0088660D01*
X0072781Y0088644D01*
X0072711Y0088631D01*
X0072641Y0088622D01*
X0072569Y0088617D01*
X0072498Y0088616D01*
X0072427Y0088619D01*
X0072356Y0088626D01*
X0072286Y0088637D01*
X0072216Y0088652D01*
X0072147Y0088670D01*
X0072079Y0088693D01*
X0072013Y0088719D01*
X0071948Y0088749D01*
X0071885Y0088782D01*
X0071824Y0088819D01*
X0071765Y0088859D01*
X0071709Y0088902D01*
X0071655Y0088948D01*
X0071603Y0088998D01*
X0071555Y0089050D01*
X0071509Y0089105D01*
X0071466Y0089162D01*
X0071427Y0089221D01*
X0071391Y0089283D01*
X0071359Y0089346D01*
X0071330Y0089412D01*
X0071305Y0089478D01*
X0071283Y0089546D01*
X0071266Y0089615D01*
X0071252Y0089685D01*
X0071242Y0089756D01*
X0071236Y0089827D01*
X0071234Y0089898D01*
X0070646Y0048205D02*
X0065921Y0048205D01*
X0058441Y0043087D02*
X0058441Y0040724D01*
X0065921Y0035606D02*
X0070646Y0035606D01*
X0078126Y0040724D02*
X0078126Y0043087D01*
X0241776Y0143276D02*
X0241776Y0149276D01*
X0256748Y0143165D02*
X0256748Y0140803D01*
X0264228Y0135685D02*
X0268953Y0135685D01*
X0276433Y0140803D02*
X0276433Y0143165D01*
X0268953Y0148283D02*
X0264228Y0148283D01*
X0290146Y0140614D02*
X0290146Y0134614D01*
X0277051Y0089512D02*
X0277051Y0083512D01*
X0068047Y0262417D02*
X0064020Y0258480D01*
X0064020Y0266354D01*
X0068047Y0262417D01*
X0125500Y0269862D02*
X0151303Y0269862D01*
X0151302Y0293462D01*
X0125502Y0293462D02*
X0125500Y0269862D01*
D12*
X0121079Y0256906D02*
X0121079Y0254543D01*
X0116354Y0254543D02*
X0116354Y0256906D01*
X0099110Y0264504D02*
X0096748Y0264504D01*
X0096748Y0269228D02*
X0099110Y0269228D01*
X0099169Y0276546D02*
X0096769Y0276546D01*
X0091969Y0278746D02*
X0091969Y0282146D01*
X0095469Y0282146D01*
X0100469Y0282146D02*
X0103969Y0282146D01*
X0103969Y0278746D01*
X0108480Y0285646D02*
X0108480Y0288008D01*
X0113205Y0288008D02*
X0113205Y0285646D01*
X0154268Y0257102D02*
X0154268Y0254740D01*
X0158992Y0254740D02*
X0158992Y0257102D01*
X0133731Y0222311D02*
X0133731Y0218211D01*
X0139531Y0209911D02*
X0141131Y0208311D01*
X0108631Y0196311D02*
X0104631Y0196311D01*
X0087896Y0212657D02*
X0081296Y0212657D01*
X0077096Y0212657D01*
X0077096Y0232257D02*
X0087896Y0232257D01*
X0044898Y0233677D02*
X0042535Y0233677D01*
X0042535Y0228953D02*
X0044898Y0228953D01*
X0032716Y0221862D02*
X0032716Y0184862D01*
X0032714Y0184786D01*
X0032708Y0184710D01*
X0032699Y0184635D01*
X0032685Y0184560D01*
X0032668Y0184486D01*
X0032647Y0184413D01*
X0032623Y0184341D01*
X0032594Y0184270D01*
X0032563Y0184201D01*
X0032528Y0184134D01*
X0032489Y0184069D01*
X0032447Y0184005D01*
X0032402Y0183944D01*
X0032354Y0183885D01*
X0032303Y0183829D01*
X0032249Y0183775D01*
X0032193Y0183724D01*
X0032134Y0183676D01*
X0032073Y0183631D01*
X0032009Y0183589D01*
X0031944Y0183550D01*
X0031877Y0183515D01*
X0031808Y0183484D01*
X0031737Y0183455D01*
X0031665Y0183431D01*
X0031592Y0183410D01*
X0031518Y0183393D01*
X0031443Y0183379D01*
X0031368Y0183370D01*
X0031292Y0183364D01*
X0031216Y0183362D01*
X0027016Y0183362D01*
X0023016Y0183362D01*
X0018816Y0183362D01*
X0018740Y0183364D01*
X0018664Y0183370D01*
X0018589Y0183379D01*
X0018514Y0183393D01*
X0018440Y0183410D01*
X0018367Y0183431D01*
X0018295Y0183455D01*
X0018224Y0183484D01*
X0018155Y0183515D01*
X0018088Y0183550D01*
X0018023Y0183589D01*
X0017959Y0183631D01*
X0017898Y0183676D01*
X0017839Y0183724D01*
X0017783Y0183775D01*
X0017729Y0183829D01*
X0017678Y0183885D01*
X0017630Y0183944D01*
X0017585Y0184005D01*
X0017543Y0184069D01*
X0017504Y0184134D01*
X0017469Y0184201D01*
X0017438Y0184270D01*
X0017409Y0184341D01*
X0017385Y0184413D01*
X0017364Y0184486D01*
X0017347Y0184560D01*
X0017333Y0184635D01*
X0017324Y0184710D01*
X0017318Y0184786D01*
X0017316Y0184862D01*
X0017316Y0221862D01*
X0017318Y0221938D01*
X0017324Y0222014D01*
X0017333Y0222089D01*
X0017347Y0222164D01*
X0017364Y0222238D01*
X0017385Y0222311D01*
X0017409Y0222383D01*
X0017438Y0222454D01*
X0017469Y0222523D01*
X0017504Y0222590D01*
X0017543Y0222655D01*
X0017585Y0222719D01*
X0017630Y0222780D01*
X0017678Y0222839D01*
X0017729Y0222895D01*
X0017783Y0222949D01*
X0017839Y0223000D01*
X0017898Y0223048D01*
X0017959Y0223093D01*
X0018023Y0223135D01*
X0018088Y0223174D01*
X0018155Y0223209D01*
X0018224Y0223240D01*
X0018295Y0223269D01*
X0018367Y0223293D01*
X0018440Y0223314D01*
X0018514Y0223331D01*
X0018589Y0223345D01*
X0018664Y0223354D01*
X0018740Y0223360D01*
X0018816Y0223362D01*
X0031216Y0223362D01*
X0031292Y0223360D01*
X0031368Y0223354D01*
X0031443Y0223345D01*
X0031518Y0223331D01*
X0031592Y0223314D01*
X0031665Y0223293D01*
X0031737Y0223269D01*
X0031808Y0223240D01*
X0031877Y0223209D01*
X0031944Y0223174D01*
X0032009Y0223135D01*
X0032073Y0223093D01*
X0032134Y0223048D01*
X0032193Y0223000D01*
X0032249Y0222949D01*
X0032303Y0222895D01*
X0032354Y0222839D01*
X0032402Y0222780D01*
X0032447Y0222719D01*
X0032489Y0222655D01*
X0032528Y0222590D01*
X0032563Y0222523D01*
X0032594Y0222454D01*
X0032623Y0222383D01*
X0032647Y0222311D01*
X0032668Y0222238D01*
X0032685Y0222164D01*
X0032699Y0222089D01*
X0032708Y0222014D01*
X0032714Y0221938D01*
X0032716Y0221862D01*
X0027016Y0183362D02*
X0027014Y0183450D01*
X0027008Y0183539D01*
X0026998Y0183627D01*
X0026985Y0183714D01*
X0026967Y0183801D01*
X0026946Y0183887D01*
X0026921Y0183972D01*
X0026892Y0184055D01*
X0026859Y0184138D01*
X0026823Y0184218D01*
X0026784Y0184297D01*
X0026741Y0184375D01*
X0026694Y0184450D01*
X0026644Y0184523D01*
X0026591Y0184594D01*
X0026535Y0184663D01*
X0026476Y0184729D01*
X0026414Y0184792D01*
X0026350Y0184852D01*
X0026283Y0184910D01*
X0026213Y0184964D01*
X0026141Y0185016D01*
X0026067Y0185064D01*
X0025990Y0185109D01*
X0025912Y0185150D01*
X0025832Y0185188D01*
X0025751Y0185222D01*
X0025668Y0185253D01*
X0025583Y0185280D01*
X0025498Y0185303D01*
X0025412Y0185322D01*
X0025324Y0185338D01*
X0025237Y0185350D01*
X0025149Y0185358D01*
X0025060Y0185362D01*
X0024972Y0185362D01*
X0024883Y0185358D01*
X0024795Y0185350D01*
X0024708Y0185338D01*
X0024620Y0185322D01*
X0024534Y0185303D01*
X0024449Y0185280D01*
X0024364Y0185253D01*
X0024281Y0185222D01*
X0024200Y0185188D01*
X0024120Y0185150D01*
X0024042Y0185109D01*
X0023965Y0185064D01*
X0023891Y0185016D01*
X0023819Y0184964D01*
X0023749Y0184910D01*
X0023682Y0184852D01*
X0023618Y0184792D01*
X0023556Y0184729D01*
X0023497Y0184663D01*
X0023441Y0184594D01*
X0023388Y0184523D01*
X0023338Y0184450D01*
X0023291Y0184375D01*
X0023248Y0184297D01*
X0023209Y0184218D01*
X0023173Y0184138D01*
X0023140Y0184055D01*
X0023111Y0183972D01*
X0023086Y0183887D01*
X0023065Y0183801D01*
X0023047Y0183714D01*
X0023034Y0183627D01*
X0023024Y0183539D01*
X0023018Y0183450D01*
X0023016Y0183362D01*
X0067929Y0115173D02*
X0070291Y0115173D01*
X0070291Y0110449D02*
X0067929Y0110449D01*
X0054937Y0110055D02*
X0054937Y0107693D01*
X0050213Y0107693D02*
X0050213Y0110055D01*
X0050606Y0089189D02*
X0050606Y0086827D01*
X0045882Y0086827D02*
X0045882Y0089189D01*
X0086709Y0073874D02*
X0086709Y0071512D01*
X0091433Y0071512D02*
X0091433Y0073874D01*
X0121039Y0061255D02*
X0121039Y0048855D01*
X0121041Y0048779D01*
X0121047Y0048703D01*
X0121056Y0048628D01*
X0121070Y0048553D01*
X0121087Y0048479D01*
X0121108Y0048406D01*
X0121132Y0048334D01*
X0121161Y0048263D01*
X0121192Y0048194D01*
X0121227Y0048127D01*
X0121266Y0048062D01*
X0121308Y0047998D01*
X0121353Y0047937D01*
X0121401Y0047878D01*
X0121452Y0047822D01*
X0121506Y0047768D01*
X0121562Y0047717D01*
X0121621Y0047669D01*
X0121682Y0047624D01*
X0121746Y0047582D01*
X0121811Y0047543D01*
X0121878Y0047508D01*
X0121947Y0047477D01*
X0122018Y0047448D01*
X0122090Y0047424D01*
X0122163Y0047403D01*
X0122237Y0047386D01*
X0122312Y0047372D01*
X0122387Y0047363D01*
X0122463Y0047357D01*
X0122539Y0047355D01*
X0159539Y0047355D01*
X0159615Y0047357D01*
X0159691Y0047363D01*
X0159766Y0047372D01*
X0159841Y0047386D01*
X0159915Y0047403D01*
X0159988Y0047424D01*
X0160060Y0047448D01*
X0160131Y0047477D01*
X0160200Y0047508D01*
X0160267Y0047543D01*
X0160332Y0047582D01*
X0160396Y0047624D01*
X0160457Y0047669D01*
X0160516Y0047717D01*
X0160572Y0047768D01*
X0160626Y0047822D01*
X0160677Y0047878D01*
X0160725Y0047937D01*
X0160770Y0047998D01*
X0160812Y0048062D01*
X0160851Y0048127D01*
X0160886Y0048194D01*
X0160917Y0048263D01*
X0160946Y0048334D01*
X0160970Y0048406D01*
X0160991Y0048479D01*
X0161008Y0048553D01*
X0161022Y0048628D01*
X0161031Y0048703D01*
X0161037Y0048779D01*
X0161039Y0048855D01*
X0161039Y0053055D01*
X0161039Y0057055D01*
X0161039Y0061255D01*
X0161037Y0061331D01*
X0161031Y0061407D01*
X0161022Y0061482D01*
X0161008Y0061557D01*
X0160991Y0061631D01*
X0160970Y0061704D01*
X0160946Y0061776D01*
X0160917Y0061847D01*
X0160886Y0061916D01*
X0160851Y0061983D01*
X0160812Y0062048D01*
X0160770Y0062112D01*
X0160725Y0062173D01*
X0160677Y0062232D01*
X0160626Y0062288D01*
X0160572Y0062342D01*
X0160516Y0062393D01*
X0160457Y0062441D01*
X0160396Y0062486D01*
X0160332Y0062528D01*
X0160267Y0062567D01*
X0160200Y0062602D01*
X0160131Y0062633D01*
X0160060Y0062662D01*
X0159988Y0062686D01*
X0159915Y0062707D01*
X0159841Y0062724D01*
X0159766Y0062738D01*
X0159691Y0062747D01*
X0159615Y0062753D01*
X0159539Y0062755D01*
X0122539Y0062755D01*
X0122463Y0062753D01*
X0122387Y0062747D01*
X0122312Y0062738D01*
X0122237Y0062724D01*
X0122163Y0062707D01*
X0122090Y0062686D01*
X0122018Y0062662D01*
X0121947Y0062633D01*
X0121878Y0062602D01*
X0121811Y0062567D01*
X0121746Y0062528D01*
X0121682Y0062486D01*
X0121621Y0062441D01*
X0121562Y0062393D01*
X0121506Y0062342D01*
X0121452Y0062288D01*
X0121401Y0062232D01*
X0121353Y0062173D01*
X0121308Y0062112D01*
X0121266Y0062048D01*
X0121227Y0061983D01*
X0121192Y0061916D01*
X0121161Y0061847D01*
X0121132Y0061776D01*
X0121108Y0061704D01*
X0121087Y0061631D01*
X0121070Y0061557D01*
X0121056Y0061482D01*
X0121047Y0061407D01*
X0121041Y0061331D01*
X0121039Y0061255D01*
X0089189Y0039583D02*
X0086827Y0039583D01*
X0086827Y0034858D02*
X0089189Y0034858D01*
X0090082Y0024154D02*
X0090082Y0021154D01*
X0101482Y0021154D01*
X0101482Y0024154D01*
X0090082Y0024154D01*
X0052969Y0041551D02*
X0052969Y0043913D01*
X0048244Y0043913D02*
X0048244Y0041551D01*
X0161039Y0053055D02*
X0160951Y0053057D01*
X0160862Y0053063D01*
X0160774Y0053073D01*
X0160687Y0053086D01*
X0160600Y0053104D01*
X0160514Y0053125D01*
X0160429Y0053150D01*
X0160346Y0053179D01*
X0160263Y0053212D01*
X0160183Y0053248D01*
X0160104Y0053287D01*
X0160026Y0053330D01*
X0159951Y0053377D01*
X0159878Y0053427D01*
X0159807Y0053480D01*
X0159738Y0053536D01*
X0159672Y0053595D01*
X0159609Y0053657D01*
X0159549Y0053721D01*
X0159491Y0053788D01*
X0159437Y0053858D01*
X0159385Y0053930D01*
X0159337Y0054004D01*
X0159292Y0054081D01*
X0159251Y0054159D01*
X0159213Y0054239D01*
X0159179Y0054320D01*
X0159148Y0054403D01*
X0159121Y0054488D01*
X0159098Y0054573D01*
X0159079Y0054659D01*
X0159063Y0054747D01*
X0159051Y0054834D01*
X0159043Y0054922D01*
X0159039Y0055011D01*
X0159039Y0055099D01*
X0159043Y0055188D01*
X0159051Y0055276D01*
X0159063Y0055363D01*
X0159079Y0055451D01*
X0159098Y0055537D01*
X0159121Y0055622D01*
X0159148Y0055707D01*
X0159179Y0055790D01*
X0159213Y0055871D01*
X0159251Y0055951D01*
X0159292Y0056029D01*
X0159337Y0056106D01*
X0159385Y0056180D01*
X0159437Y0056252D01*
X0159491Y0056322D01*
X0159549Y0056389D01*
X0159609Y0056453D01*
X0159672Y0056515D01*
X0159738Y0056574D01*
X0159807Y0056630D01*
X0159878Y0056683D01*
X0159951Y0056733D01*
X0160026Y0056780D01*
X0160104Y0056823D01*
X0160183Y0056862D01*
X0160263Y0056898D01*
X0160346Y0056931D01*
X0160429Y0056960D01*
X0160514Y0056985D01*
X0160600Y0057006D01*
X0160687Y0057024D01*
X0160774Y0057037D01*
X0160862Y0057047D01*
X0160951Y0057053D01*
X0161039Y0057055D01*
X0286039Y0026591D02*
X0288402Y0026591D01*
X0288402Y0021866D02*
X0286039Y0021866D01*
X0136931Y0173411D02*
X0136931Y0177411D01*
D13*
X0018716Y0183362D02*
X0018716Y0223362D01*
X0121039Y0048755D02*
X0161039Y0048755D01*
D14*
X0164616Y0052810D02*
X0164026Y0053400D01*
X0164026Y0053990D01*
X0164616Y0054580D01*
X0166386Y0054580D01*
X0166386Y0053400D01*
X0165796Y0052810D01*
X0164616Y0052810D01*
X0166386Y0054580D02*
X0165206Y0055760D01*
X0164026Y0056350D01*
X0167651Y0056350D02*
X0167651Y0053400D01*
X0168241Y0052810D01*
X0169421Y0052810D01*
X0170011Y0053400D01*
X0170011Y0056350D01*
X0107275Y0017724D02*
X0104915Y0017724D01*
X0106095Y0017724D02*
X0106095Y0014184D01*
X0103650Y0014184D02*
X0101290Y0014184D01*
X0102470Y0014184D02*
X0102470Y0017724D01*
X0103650Y0016544D01*
X0077631Y0094153D02*
X0076096Y0094153D01*
X0075329Y0094920D01*
X0073795Y0094153D02*
X0073795Y0098757D01*
X0075329Y0097989D02*
X0076096Y0098757D01*
X0077631Y0098757D01*
X0078398Y0097989D01*
X0078398Y0094920D01*
X0077631Y0094153D01*
X0073795Y0096455D02*
X0070725Y0096455D01*
X0069191Y0097989D02*
X0068423Y0098757D01*
X0066889Y0098757D01*
X0066121Y0097989D01*
X0066121Y0097222D01*
X0066889Y0096455D01*
X0066121Y0095687D01*
X0066121Y0094920D01*
X0066889Y0094153D01*
X0068423Y0094153D01*
X0069191Y0094920D01*
X0070725Y0094153D02*
X0070725Y0098757D01*
X0067656Y0096455D02*
X0066889Y0096455D01*
X0064587Y0096455D02*
X0062285Y0098757D01*
X0062285Y0094153D01*
X0061517Y0096455D02*
X0064587Y0096455D01*
X0059983Y0097989D02*
X0059215Y0098757D01*
X0057681Y0098757D01*
X0056913Y0097989D01*
X0059983Y0094920D01*
X0059215Y0094153D01*
X0057681Y0094153D01*
X0056913Y0094920D01*
X0056913Y0097989D01*
X0055379Y0097989D02*
X0055379Y0094920D01*
X0054611Y0094153D01*
X0053077Y0094153D01*
X0052310Y0094920D01*
X0052310Y0096455D01*
X0053844Y0096455D01*
X0052310Y0097989D02*
X0053077Y0098757D01*
X0054611Y0098757D01*
X0055379Y0097989D01*
X0059983Y0097989D02*
X0059983Y0094920D01*
X0119589Y0220154D02*
X0121949Y0220154D01*
X0120769Y0220154D02*
X0120769Y0223694D01*
X0121949Y0222514D01*
X0123214Y0223104D02*
X0123804Y0223694D01*
X0124984Y0223694D01*
X0125574Y0223104D01*
X0125574Y0220744D01*
X0124984Y0220154D01*
X0123804Y0220154D01*
X0123214Y0220744D01*
X0126811Y0220154D02*
X0127991Y0220154D01*
X0127401Y0220154D02*
X0127401Y0223694D01*
X0127991Y0223694D02*
X0126811Y0223694D01*
X0085881Y0234694D02*
X0085291Y0234104D01*
X0084111Y0234104D01*
X0083521Y0234694D01*
X0083521Y0237644D01*
X0082256Y0237054D02*
X0081666Y0237644D01*
X0080486Y0237644D01*
X0079896Y0237054D01*
X0079896Y0236464D01*
X0082256Y0234104D01*
X0079896Y0234104D01*
X0085881Y0234694D02*
X0085881Y0237644D01*
X0073680Y0254917D02*
X0055880Y0254917D01*
X0049457Y0260094D02*
X0047156Y0260094D01*
X0046388Y0260861D01*
X0046388Y0263930D01*
X0047156Y0264698D01*
X0049457Y0264698D01*
X0049457Y0260094D01*
X0044854Y0260094D02*
X0041784Y0260094D01*
X0043319Y0260094D02*
X0043319Y0264698D01*
X0044854Y0263163D01*
X0055880Y0269917D02*
X0073680Y0269917D01*
X0028790Y0228909D02*
X0028790Y0225959D01*
X0028200Y0225369D01*
X0027020Y0225369D01*
X0026430Y0225959D01*
X0026430Y0228909D01*
X0025165Y0228909D02*
X0022805Y0228909D01*
X0022805Y0228319D01*
X0025165Y0225959D01*
X0025165Y0225369D01*
D15*
X0138402Y0267962D03*
D16*
X0083696Y0212557D02*
X0083697Y0212626D01*
X0083694Y0212694D01*
X0083687Y0212762D01*
X0083676Y0212830D01*
X0083661Y0212897D01*
X0083643Y0212963D01*
X0083621Y0213028D01*
X0083595Y0213092D01*
X0083565Y0213154D01*
X0083533Y0213214D01*
X0083496Y0213272D01*
X0083457Y0213328D01*
X0083414Y0213382D01*
X0083368Y0213433D01*
X0083320Y0213481D01*
X0083268Y0213527D01*
X0083215Y0213569D01*
X0083158Y0213609D01*
X0083100Y0213645D01*
X0083040Y0213678D01*
X0082978Y0213707D01*
X0082914Y0213733D01*
X0082849Y0213755D01*
X0082783Y0213773D01*
X0082716Y0213788D01*
X0082649Y0213798D01*
X0082580Y0213805D01*
X0082512Y0213808D01*
X0082443Y0213807D01*
X0082375Y0213802D01*
X0082307Y0213793D01*
X0082239Y0213780D01*
X0082173Y0213764D01*
X0082107Y0213743D01*
X0082043Y0213719D01*
X0081980Y0213692D01*
X0081919Y0213660D01*
X0081860Y0213626D01*
X0081803Y0213588D01*
X0081748Y0213547D01*
X0081696Y0213502D01*
X0081646Y0213455D01*
X0081599Y0213405D01*
X0081555Y0213353D01*
X0081514Y0213298D01*
X0081476Y0213241D01*
X0081441Y0213181D01*
X0081410Y0213120D01*
X0081383Y0213057D01*
X0081359Y0212993D01*
X0081339Y0212927D01*
X0081322Y0212861D01*
X0081310Y0212793D01*
X0081301Y0212725D01*
X0081296Y0212657D01*
D17*
X0012030Y0131832D03*
X0012030Y0126032D03*
X0012030Y0109391D03*
X0012030Y0103591D03*
X0154746Y0102502D03*
X0154746Y0096702D03*
X0185443Y0096743D03*
X0185443Y0102543D03*
D18*
X0023441Y0103362D03*
D19*
X0169622Y0232559D03*
X0169622Y0233559D03*
X0169622Y0234559D03*
X0169622Y0235559D03*
X0169622Y0236559D03*
X0169622Y0237559D03*
X0169622Y0238559D03*
X0169622Y0239559D03*
X0169622Y0240559D03*
X0169622Y0241559D03*
X0169622Y0242559D03*
X0169622Y0243559D03*
X0169622Y0244559D03*
X0174952Y0244559D03*
X0174952Y0243559D03*
X0174952Y0242559D03*
X0177292Y0242559D03*
X0177292Y0243559D03*
X0177292Y0244559D03*
X0177292Y0246559D03*
X0177292Y0247559D03*
X0177292Y0248559D03*
X0174952Y0248559D03*
X0174952Y0247559D03*
X0174952Y0246559D03*
X0181952Y0248559D03*
X0182292Y0249559D03*
X0182622Y0250559D03*
X0184622Y0251559D03*
X0184952Y0250559D03*
X0189622Y0249559D03*
X0189622Y0248559D03*
X0189622Y0251559D03*
X0189622Y0252559D03*
X0192622Y0252559D03*
X0192622Y0251559D03*
X0192622Y0249559D03*
X0192622Y0248559D03*
X0199622Y0248559D03*
X0199622Y0249559D03*
X0199622Y0251559D03*
X0205622Y0251559D03*
X0205622Y0250559D03*
X0205622Y0249559D03*
X0205622Y0252559D03*
X0209952Y0249559D03*
X0209622Y0248559D03*
X0210952Y0251559D03*
X0212292Y0251559D03*
X0212622Y0250559D03*
X0213622Y0248559D03*
X0212952Y0240559D03*
X0212952Y0239559D03*
X0212952Y0237559D03*
X0212952Y0236559D03*
X0210622Y0237559D03*
X0210622Y0239559D03*
X0210622Y0240559D03*
X0207292Y0240559D03*
X0206622Y0238559D03*
X0208292Y0236559D03*
X0203622Y0238559D03*
X0203292Y0237559D03*
X0203292Y0239559D03*
X0196952Y0240559D03*
X0189292Y0238559D03*
X0188622Y0240559D03*
X0185292Y0239559D03*
X0185292Y0237559D03*
X0182952Y0237559D03*
X0182952Y0239559D03*
X0187622Y0236559D03*
X0183952Y0230559D03*
X0180622Y0232559D03*
X0184952Y0257559D03*
X0184952Y0259559D03*
X0203952Y0257559D03*
X0203952Y0256559D03*
X0204952Y0259559D03*
X0205622Y0260559D03*
X0212622Y0258559D03*
X0224292Y0245559D03*
X0220292Y0235559D03*
X0220292Y0234559D03*
X0220292Y0233559D03*
X0220292Y0232559D03*
X0221952Y0232559D03*
X0221952Y0231559D03*
X0221952Y0230559D03*
X0221952Y0229559D03*
X0220292Y0229559D03*
X0220292Y0228559D03*
X0220292Y0230559D03*
X0221952Y0233559D03*
X0223952Y0232559D03*
X0223952Y0231559D03*
X0223952Y0230559D03*
D20*
X0223952Y0230893D03*
X0223952Y0231226D03*
X0223952Y0231893D03*
X0223952Y0232226D03*
X0223952Y0232893D03*
X0223952Y0233226D03*
X0221952Y0233226D03*
X0221952Y0232893D03*
X0221952Y0232226D03*
X0221952Y0231893D03*
X0221952Y0231226D03*
X0221952Y0230893D03*
X0221952Y0230226D03*
X0221952Y0229893D03*
X0220292Y0229893D03*
X0220292Y0230226D03*
X0220292Y0230893D03*
X0220292Y0231226D03*
X0220292Y0232893D03*
X0220292Y0233226D03*
X0220292Y0233893D03*
X0220292Y0234226D03*
X0220292Y0234893D03*
X0220292Y0235226D03*
X0221952Y0234226D03*
X0221952Y0233893D03*
X0220292Y0229226D03*
X0220292Y0228893D03*
X0212952Y0236893D03*
X0212952Y0237226D03*
X0212952Y0237893D03*
X0212952Y0238226D03*
X0212952Y0239226D03*
X0212952Y0239893D03*
X0212952Y0240226D03*
X0212952Y0240893D03*
X0210622Y0240226D03*
X0210622Y0239893D03*
X0210622Y0239226D03*
X0210622Y0238226D03*
X0210622Y0237893D03*
X0210622Y0237226D03*
X0210622Y0236893D03*
X0208292Y0236893D03*
X0208292Y0237226D03*
X0207952Y0238226D03*
X0206292Y0237226D03*
X0205952Y0236893D03*
X0203622Y0238226D03*
X0203292Y0237893D03*
X0203622Y0238893D03*
X0203622Y0239226D03*
X0203292Y0239893D03*
X0197292Y0240226D03*
X0197292Y0237226D03*
X0196952Y0236893D03*
X0189622Y0237226D03*
X0189292Y0238226D03*
X0187952Y0238226D03*
X0187622Y0237226D03*
X0187622Y0236893D03*
X0185292Y0237893D03*
X0185292Y0238226D03*
X0185292Y0239226D03*
X0185292Y0239893D03*
X0182952Y0239893D03*
X0182952Y0239226D03*
X0182952Y0238226D03*
X0182952Y0237893D03*
X0188622Y0240226D03*
X0189622Y0248893D03*
X0189622Y0249226D03*
X0189622Y0249893D03*
X0189622Y0250226D03*
X0189622Y0251893D03*
X0189622Y0252226D03*
X0189622Y0252893D03*
X0189622Y0253226D03*
X0192622Y0253226D03*
X0192622Y0252893D03*
X0192622Y0252226D03*
X0192622Y0251893D03*
X0192622Y0250226D03*
X0192622Y0249893D03*
X0192622Y0249226D03*
X0192622Y0248893D03*
X0196952Y0251226D03*
X0196952Y0251893D03*
X0199622Y0251893D03*
X0199622Y0251226D03*
X0199622Y0249893D03*
X0199622Y0249226D03*
X0199622Y0248893D03*
X0205622Y0249893D03*
X0205622Y0250226D03*
X0205622Y0250893D03*
X0205622Y0251226D03*
X0205622Y0251893D03*
X0205622Y0252226D03*
X0205622Y0252893D03*
X0205622Y0253226D03*
X0203952Y0256226D03*
X0203952Y0256893D03*
X0203952Y0257226D03*
X0203952Y0257893D03*
X0203292Y0259226D03*
X0202952Y0259893D03*
X0202622Y0260226D03*
X0205292Y0259893D03*
X0201952Y0265893D03*
X0196952Y0262893D03*
X0198622Y0259226D03*
X0198622Y0258893D03*
X0198622Y0257893D03*
X0195622Y0257226D03*
X0191952Y0265893D03*
X0196952Y0270226D03*
X0196952Y0273226D03*
X0193952Y0274893D03*
X0184952Y0259226D03*
X0184952Y0257226D03*
X0183952Y0253226D03*
X0184622Y0251226D03*
X0185292Y0249893D03*
X0185622Y0249226D03*
X0185622Y0248893D03*
X0182622Y0250226D03*
X0182952Y0250893D03*
X0182952Y0251226D03*
X0181952Y0248893D03*
X0177292Y0248893D03*
X0177292Y0248226D03*
X0177292Y0247893D03*
X0177292Y0247226D03*
X0177292Y0246893D03*
X0177292Y0246226D03*
X0177292Y0245893D03*
X0177292Y0244226D03*
X0177292Y0243893D03*
X0177292Y0243226D03*
X0177292Y0242893D03*
X0177292Y0242226D03*
X0177292Y0241893D03*
X0174952Y0241893D03*
X0174952Y0242226D03*
X0174952Y0242893D03*
X0174952Y0243226D03*
X0174952Y0243893D03*
X0174952Y0244226D03*
X0174952Y0245893D03*
X0174952Y0246226D03*
X0174952Y0246893D03*
X0174952Y0247226D03*
X0174952Y0247893D03*
X0174952Y0248226D03*
X0174952Y0248893D03*
X0169622Y0244226D03*
X0169622Y0243893D03*
X0169622Y0243226D03*
X0169622Y0242893D03*
X0169622Y0242226D03*
X0169622Y0241893D03*
X0169622Y0241226D03*
X0169622Y0240893D03*
X0169622Y0240226D03*
X0169622Y0239893D03*
X0169622Y0239226D03*
X0169622Y0238893D03*
X0169622Y0238226D03*
X0169622Y0237893D03*
X0169622Y0237226D03*
X0169622Y0236893D03*
X0169622Y0236226D03*
X0169622Y0235893D03*
X0169622Y0235226D03*
X0169622Y0234893D03*
X0169622Y0234226D03*
X0169622Y0233893D03*
X0169622Y0233226D03*
X0169622Y0232893D03*
X0180292Y0232226D03*
X0209952Y0249226D03*
X0210292Y0249893D03*
X0210292Y0250226D03*
X0210622Y0250893D03*
X0212622Y0250893D03*
X0212952Y0250226D03*
X0212952Y0249893D03*
X0213292Y0249226D03*
X0211622Y0253226D03*
X0221292Y0245893D03*
X0224292Y0245893D03*
X0224292Y0245226D03*
X0224292Y0244893D03*
D21*
X0210787Y0240893D03*
X0206457Y0238226D03*
X0196787Y0240893D03*
X0194457Y0240893D03*
X0194457Y0240226D03*
X0194457Y0239893D03*
X0194457Y0239226D03*
X0194457Y0238893D03*
X0194457Y0238226D03*
X0194457Y0237893D03*
X0189787Y0236893D03*
X0188787Y0240893D03*
X0189457Y0230226D03*
X0194787Y0230226D03*
X0178787Y0230226D03*
X0209457Y0257226D03*
X0196787Y0260893D03*
X0199787Y0274893D03*
D22*
X0196957Y0272893D03*
X0196957Y0270893D03*
X0191957Y0233893D03*
X0183957Y0230226D03*
X0181287Y0233893D03*
D23*
X0179787Y0231559D03*
X0178787Y0230559D03*
X0188457Y0231559D03*
X0189457Y0230559D03*
X0190457Y0231559D03*
X0193787Y0231559D03*
X0194787Y0230559D03*
X0197787Y0237559D03*
X0198787Y0238559D03*
X0185787Y0248559D03*
X0185457Y0249559D03*
X0196787Y0251559D03*
X0198457Y0257559D03*
X0198787Y0258559D03*
X0198457Y0259559D03*
X0202457Y0260559D03*
X0212457Y0257559D03*
X0210457Y0250559D03*
X0221457Y0244559D03*
X0193787Y0274559D03*
D24*
X0200122Y0274226D03*
X0201792Y0266893D03*
X0196792Y0256226D03*
X0183792Y0252226D03*
X0183792Y0251893D03*
X0188792Y0238893D03*
X0186792Y0232893D03*
X0189452Y0230893D03*
X0192122Y0232893D03*
X0194792Y0230893D03*
X0198452Y0237893D03*
X0202452Y0237226D03*
X0202122Y0240893D03*
X0207122Y0238893D03*
X0222792Y0247226D03*
X0181452Y0232893D03*
X0178792Y0230893D03*
D25*
X0183957Y0230893D03*
X0207287Y0239226D03*
X0211957Y0257226D03*
X0196957Y0269893D03*
X0196957Y0273893D03*
X0191957Y0266226D03*
D26*
X0201787Y0267226D03*
X0193787Y0273893D03*
X0198787Y0253226D03*
X0184457Y0240893D03*
X0188787Y0237893D03*
X0193457Y0237226D03*
X0194787Y0231226D03*
X0189457Y0231226D03*
X0178787Y0231226D03*
X0222787Y0246893D03*
D27*
X0207122Y0237893D03*
X0184122Y0231226D03*
X0192122Y0267226D03*
X0200122Y0273893D03*
D28*
X0207957Y0231559D03*
D29*
X0224122Y0244559D03*
X0213122Y0249559D03*
X0212122Y0259559D03*
X0203122Y0259559D03*
X0191122Y0259559D03*
X0191122Y0258559D03*
X0191122Y0257559D03*
X0191122Y0260559D03*
X0183122Y0251559D03*
X0182122Y0232559D03*
X0183122Y0231559D03*
X0185122Y0231559D03*
X0200122Y0274559D03*
D30*
X0173787Y0231559D03*
D31*
X0208122Y0231893D03*
X0208122Y0232226D03*
D32*
X0198787Y0238893D03*
X0197787Y0239893D03*
X0188787Y0239893D03*
X0186787Y0233226D03*
X0185787Y0232226D03*
X0185457Y0231893D03*
X0187787Y0232226D03*
X0190787Y0231893D03*
X0193457Y0231893D03*
X0182787Y0231893D03*
X0182457Y0232226D03*
X0181457Y0233226D03*
X0182457Y0249893D03*
X0184787Y0250893D03*
X0183787Y0252893D03*
X0198787Y0258226D03*
X0204787Y0259226D03*
X0205457Y0260226D03*
X0201787Y0266226D03*
X0212457Y0259226D03*
X0212457Y0258893D03*
X0212457Y0258226D03*
X0212457Y0257893D03*
X0211457Y0252893D03*
X0210787Y0251226D03*
X0212457Y0251226D03*
X0213457Y0248893D03*
X0209787Y0248893D03*
X0221457Y0246226D03*
D33*
X0224122Y0246226D03*
X0207122Y0240226D03*
X0207122Y0239893D03*
X0193122Y0232226D03*
X0192122Y0233226D03*
X0191122Y0232226D03*
X0188122Y0231893D03*
X0180122Y0231893D03*
X0182122Y0249226D03*
X0185122Y0250226D03*
X0191122Y0257226D03*
X0191122Y0257893D03*
X0191122Y0258226D03*
X0191122Y0258893D03*
X0191122Y0259226D03*
X0191122Y0259893D03*
X0191122Y0260226D03*
X0198122Y0257226D03*
X0204122Y0258226D03*
D34*
X0173622Y0231893D03*
D35*
X0173457Y0232226D03*
D36*
X0192122Y0232559D03*
X0207122Y0237559D03*
X0192122Y0267559D03*
D37*
X0196787Y0260559D03*
X0201787Y0267559D03*
X0188787Y0237559D03*
X0184457Y0236559D03*
X0186787Y0232559D03*
D38*
X0192122Y0233559D03*
X0188122Y0238559D03*
X0199122Y0237559D03*
X0199122Y0236559D03*
X0199122Y0240559D03*
X0206122Y0236559D03*
D39*
X0207787Y0238559D03*
X0210787Y0236559D03*
X0196787Y0236559D03*
X0194457Y0237559D03*
X0194457Y0238559D03*
X0194457Y0239559D03*
X0194457Y0240559D03*
X0189787Y0236559D03*
X0186787Y0233559D03*
X0181457Y0233559D03*
X0196787Y0270559D03*
D40*
X0210622Y0260893D03*
X0186622Y0233893D03*
D41*
X0198452Y0239559D03*
X0202122Y0236559D03*
X0222792Y0243559D03*
D42*
X0204622Y0248559D03*
X0210622Y0256559D03*
X0196952Y0256559D03*
X0190292Y0256559D03*
X0183952Y0258559D03*
X0193622Y0273559D03*
X0196952Y0274559D03*
X0200292Y0273559D03*
X0184292Y0240559D03*
X0184292Y0238559D03*
X0193292Y0236559D03*
D43*
X0202287Y0236893D03*
X0202287Y0240226D03*
X0203957Y0258893D03*
X0196957Y0269226D03*
X0191957Y0266893D03*
X0196957Y0274226D03*
D44*
X0199122Y0240893D03*
X0199122Y0240226D03*
X0199122Y0239893D03*
X0199122Y0237226D03*
X0199122Y0236893D03*
X0207122Y0240893D03*
D45*
X0204622Y0248893D03*
X0204622Y0249226D03*
X0198622Y0250226D03*
X0190292Y0256226D03*
X0190292Y0256893D03*
X0183952Y0257893D03*
X0183952Y0258226D03*
X0183952Y0258893D03*
X0196952Y0268893D03*
X0201622Y0267893D03*
X0196952Y0274893D03*
X0222952Y0243893D03*
X0193292Y0236893D03*
X0184292Y0236893D03*
X0184292Y0238893D03*
D46*
X0184122Y0240226D03*
X0184122Y0237226D03*
X0192122Y0267893D03*
D47*
X0211622Y0252226D03*
X0198622Y0239226D03*
X0198622Y0238226D03*
X0188622Y0239226D03*
D48*
X0198457Y0250559D03*
X0183787Y0256559D03*
X0183787Y0260559D03*
X0211787Y0238559D03*
X0222787Y0246559D03*
D49*
X0222787Y0244226D03*
X0211787Y0238893D03*
X0198457Y0252893D03*
X0196787Y0260226D03*
X0183787Y0260226D03*
X0183787Y0259893D03*
X0183787Y0256893D03*
X0183787Y0256226D03*
D50*
X0183957Y0252559D03*
X0203957Y0258559D03*
X0201957Y0266559D03*
X0196957Y0273559D03*
X0191957Y0266559D03*
X0207287Y0239559D03*
D51*
X0211622Y0252559D03*
X0188622Y0239559D03*
D52*
X0202287Y0240559D03*
X0196957Y0269559D03*
D53*
X0199292Y0245226D03*
X0199292Y0244893D03*
D54*
X0172287Y0244893D03*
X0172287Y0245226D03*
X0196957Y0266226D03*
D55*
X0199292Y0245559D03*
D56*
X0172287Y0245559D03*
X0196957Y0266559D03*
D57*
X0196792Y0275559D03*
X0191122Y0250559D03*
D58*
X0198287Y0250893D03*
X0198287Y0252226D03*
X0200287Y0273226D03*
X0196957Y0275226D03*
D59*
X0201452Y0268893D03*
X0192452Y0268893D03*
X0196792Y0259893D03*
X0196792Y0256893D03*
X0191122Y0251226D03*
X0191122Y0250893D03*
D60*
X0210622Y0256226D03*
X0211622Y0251893D03*
X0193622Y0274226D03*
D61*
X0198287Y0252559D03*
D62*
X0210622Y0256893D03*
X0210622Y0259893D03*
X0210622Y0260226D03*
X0193622Y0273226D03*
D63*
X0191957Y0265559D03*
X0201957Y0265559D03*
X0209287Y0259559D03*
X0209287Y0257559D03*
D64*
X0195622Y0257559D03*
X0195622Y0259559D03*
D65*
X0210622Y0260559D03*
D66*
X0201287Y0269226D03*
X0200287Y0272893D03*
X0196957Y0267893D03*
X0196957Y0263226D03*
D67*
X0196957Y0263559D03*
D68*
X0196952Y0263893D03*
X0196952Y0265893D03*
D69*
X0196957Y0265226D03*
X0196957Y0264226D03*
D70*
X0196952Y0264559D03*
D71*
X0196957Y0264893D03*
D72*
X0196957Y0265559D03*
D73*
X0196957Y0266893D03*
D74*
X0196952Y0267226D03*
X0192952Y0270226D03*
X0193622Y0272226D03*
X0200292Y0272226D03*
X0200622Y0270893D03*
X0200952Y0270226D03*
D75*
X0200952Y0270559D03*
X0196952Y0267559D03*
X0192952Y0270559D03*
D76*
X0192622Y0269226D03*
X0193622Y0272893D03*
D77*
X0200287Y0272559D03*
X0201287Y0269559D03*
D78*
X0192622Y0269559D03*
D79*
X0201122Y0269893D03*
D80*
X0192787Y0269893D03*
D81*
X0193122Y0270893D03*
X0200122Y0271893D03*
D82*
X0200457Y0271226D03*
X0193787Y0271893D03*
X0193457Y0271226D03*
D83*
X0193457Y0271559D03*
X0200457Y0271559D03*
D84*
X0193457Y0272559D03*
D85*
X0153683Y0114774D03*
X0147883Y0114774D03*
X0147530Y0079156D03*
X0153330Y0079156D03*
X0177057Y0078959D03*
X0182857Y0078959D03*
M02*
