%
M48
M72
T01C0.01575
T02C0.02362
T03C0.02756
T04C0.03300
T05C0.03543
T06C0.03600
T07C0.03937
T08C0.04000
T09C0.06496
T10C0.12598
%
T01
X22260Y39583
X23441Y54150
X47850Y54150
X73441Y71472
X67929Y75409
X71079Y80528
X94307Y81709
X88795Y96669
X69504Y103756
X50606Y96669
X34071Y108087
X18717Y106512
X24622Y130528
X12024Y144307
X34465Y155724
X25016Y178559
X34071Y178953
X29346Y189189
X24622Y190764
X30134Y195488
X21472Y197457
X28953Y206118
X28953Y215567
X38008Y225409
X31709Y229346
X23835Y238008
X20685Y246276
X30528Y268323
X37614Y289583
X99425Y255331
X110843Y254543
X126591Y244701
X130134Y229740
X117929Y225803
X112024Y216748
X107693Y220685
X104150Y216748
X86433Y217142
X91157Y234465
X102575Y234071
X73047Y234465
X62024Y219898
X56906Y212417
X57693Y194307
X62024Y182102
X67535Y182102
X68717Y170291
X79346Y162417
X79740Y156512
X78953Y151787
X72654Y152181
X77772Y141551
X93126Y139583
X99819Y145882
X110843Y143126
X117929Y146669
X124228Y139976
X139976Y148638
X150213Y148638
X158874Y156118
X164780Y150606
X173047Y142339
X197850Y156118
X221472Y141945
X184071Y117929
X178953Y103362
X183677Y89189
X161630Y95488
X154150Y89583
X147063Y103756
X138795Y94307
X118323Y74622
X130528Y58087
X138402Y50213
X133677Y36039
X139583Y31315
X135252Y27772
X130921Y16354
X115961Y32102
X95094Y31709
X85646Y26591
X94701Y43520
X105331Y56906
X158480Y17535
X165567Y43126
X174622Y50213
X166748Y73047
X206118Y60449
X251787Y85646
X291551Y86827
X320685Y135646
X324622Y170685
X265882Y156118
X233283Y180921
X246276Y191551
X267929Y192339
X219110Y190961
X194701Y191551
X189583Y197457
X167929Y191551
X155724Y197063
X159268Y205724
X172260Y217535
X171866Y223441
X181709Y219110
X147457Y226591
X135646Y204150
X130528Y202575
X125803Y201394
X121866Y189189
X114780Y181709
X110843Y176197
X106906Y172260
X120685Y170291
X124228Y165961
X115567Y164780
X125803Y174622
X138008Y165961
X152575Y185646
X138402Y189189
X106906Y182496
X91157Y192339
X86827Y186827
X80528Y176591
X97457Y160843
X52181Y128559
X90764Y123047
X125016Y121866
X144307Y139976
X161236Y114780
X105724Y201000
X99819Y201000
X171079Y256512
X143126Y280528
X143126Y287614
X143126Y295094
X133283Y295094
X133283Y287614
X133283Y280528
X129346Y265567
X110843Y297850
X208874Y268323
X217142Y295488
X271866Y296276
X304543Y271472
X270685Y244307
X231315Y235449
X318717Y219898
X365961Y220291
X369110Y240370
X342732Y295488
X313598Y302181
X25803Y77378
X228559Y17535
X345094Y17142
X369504Y62417
T02
X35252Y171276
X35252Y251787
T03
X264583Y229661
X264583Y223362
X264583Y217063
X264583Y210764
X274583Y213913
X274583Y207614
X274583Y220213
X274583Y226512
X293047Y248126
X299346Y248126
X305646Y248126
X311945Y248126
X315094Y258126
X308795Y258126
X302496Y258126
X296197Y258126
X333953Y229661
X333953Y223362
X333953Y217063
X333953Y210764
X343953Y213913
X343953Y207614
X343953Y220213
X343953Y226512
X315094Y188756
X308795Y188756
X302496Y188756
X296197Y188756
X299346Y178756
X293047Y178756
X305646Y178756
X311945Y178756
T04
X311630Y112772
X321630Y112772
X331630Y112772
X341630Y112772
X351630Y112772
X351630Y97772
X341630Y97772
X331630Y97772
X321630Y97772
X311630Y97772
X301630Y97772
X291630Y97772
X281630Y97772
X271630Y97772
X261630Y97772
X251630Y97772
X241630Y97772
X231630Y97772
X221630Y97772
X221630Y112772
X231630Y112772
X241630Y112772
X251630Y112772
X261630Y112772
X271630Y112772
X281630Y112772
X291630Y112772
X301630Y112772
X301630Y67772
X291630Y67772
X281630Y67772
X271630Y67772
X261630Y67772
X251630Y67772
X241630Y67772
X231630Y67772
X221630Y67772
X221630Y52772
X231630Y52772
X241630Y52772
X251630Y52772
X261630Y52772
X271630Y52772
X281630Y52772
X291630Y52772
X301630Y52772
X311630Y52772
X321630Y52772
X331630Y52772
X341630Y52772
X351630Y52772
X351630Y67772
X341630Y67772
X331630Y67772
X321630Y67772
X311630Y67772
T05
X25961Y68520
X25961Y85843
T06
X175409Y284858
X185409Y284858
X185409Y294858
X175409Y294858
X195409Y294858
X195409Y284858
T07
X73047Y278008
X53362Y289819
X73047Y302811
T08
X203362Y224740
X203362Y214740
X203362Y204740
T09
X202890Y82732
X384346Y82811
T10
X17929Y17929
X260961Y175134
X347575Y175134
X347575Y261748
X380134Y301394
X260961Y261748
X17929Y301394
X380134Y17929
M30
