G75*
%MOIN*%
%OFA0B0*%
%FSLAX25Y25*%
%IPPOS*%
%LPD*%
%AMOC8*
5,1,8,0,0,1.08239X$1,22.5*
%
%ADD10C,0.00000*%
D10*
X0068717Y0276039D02*
X0077378Y0276039D01*
X0079347Y0278008D02*
X0079345Y0278094D01*
X0079340Y0278180D01*
X0079330Y0278265D01*
X0079317Y0278350D01*
X0079300Y0278434D01*
X0079280Y0278518D01*
X0079256Y0278600D01*
X0079228Y0278681D01*
X0079197Y0278762D01*
X0079163Y0278840D01*
X0079125Y0278917D01*
X0079083Y0278993D01*
X0079039Y0279066D01*
X0078991Y0279137D01*
X0078940Y0279207D01*
X0078886Y0279274D01*
X0078830Y0279338D01*
X0078770Y0279400D01*
X0078708Y0279460D01*
X0078644Y0279516D01*
X0078577Y0279570D01*
X0078507Y0279621D01*
X0078436Y0279669D01*
X0078363Y0279713D01*
X0078287Y0279755D01*
X0078210Y0279793D01*
X0078132Y0279827D01*
X0078051Y0279858D01*
X0077970Y0279886D01*
X0077888Y0279910D01*
X0077804Y0279930D01*
X0077720Y0279947D01*
X0077635Y0279960D01*
X0077550Y0279970D01*
X0077464Y0279975D01*
X0077378Y0279977D01*
X0077378Y0279976D02*
X0068717Y0279976D01*
X0068717Y0279977D02*
X0068631Y0279975D01*
X0068545Y0279970D01*
X0068460Y0279960D01*
X0068375Y0279947D01*
X0068291Y0279930D01*
X0068207Y0279910D01*
X0068125Y0279886D01*
X0068044Y0279858D01*
X0067963Y0279827D01*
X0067885Y0279793D01*
X0067808Y0279755D01*
X0067733Y0279713D01*
X0067659Y0279669D01*
X0067588Y0279621D01*
X0067518Y0279570D01*
X0067451Y0279516D01*
X0067387Y0279460D01*
X0067325Y0279400D01*
X0067265Y0279338D01*
X0067209Y0279274D01*
X0067155Y0279207D01*
X0067104Y0279137D01*
X0067056Y0279066D01*
X0067012Y0278993D01*
X0066970Y0278917D01*
X0066932Y0278840D01*
X0066898Y0278762D01*
X0066867Y0278681D01*
X0066839Y0278600D01*
X0066815Y0278518D01*
X0066795Y0278434D01*
X0066778Y0278350D01*
X0066765Y0278265D01*
X0066755Y0278180D01*
X0066750Y0278094D01*
X0066748Y0278008D01*
X0079346Y0278008D01*
X0079347Y0278008D02*
X0079345Y0277922D01*
X0079340Y0277836D01*
X0079330Y0277751D01*
X0079317Y0277666D01*
X0079300Y0277582D01*
X0079280Y0277498D01*
X0079256Y0277416D01*
X0079228Y0277335D01*
X0079197Y0277254D01*
X0079163Y0277176D01*
X0079125Y0277099D01*
X0079083Y0277024D01*
X0079039Y0276950D01*
X0078991Y0276879D01*
X0078940Y0276809D01*
X0078886Y0276742D01*
X0078830Y0276678D01*
X0078770Y0276616D01*
X0078708Y0276556D01*
X0078644Y0276500D01*
X0078577Y0276446D01*
X0078507Y0276395D01*
X0078436Y0276347D01*
X0078363Y0276303D01*
X0078287Y0276261D01*
X0078210Y0276223D01*
X0078132Y0276189D01*
X0078051Y0276158D01*
X0077970Y0276130D01*
X0077888Y0276106D01*
X0077804Y0276086D01*
X0077720Y0276069D01*
X0077635Y0276056D01*
X0077550Y0276046D01*
X0077464Y0276041D01*
X0077378Y0276039D01*
X0068717Y0276039D02*
X0068631Y0276041D01*
X0068545Y0276046D01*
X0068460Y0276056D01*
X0068375Y0276069D01*
X0068291Y0276086D01*
X0068207Y0276106D01*
X0068125Y0276130D01*
X0068044Y0276158D01*
X0067963Y0276189D01*
X0067885Y0276223D01*
X0067808Y0276261D01*
X0067733Y0276303D01*
X0067659Y0276347D01*
X0067588Y0276395D01*
X0067518Y0276446D01*
X0067451Y0276500D01*
X0067387Y0276556D01*
X0067325Y0276616D01*
X0067265Y0276678D01*
X0067209Y0276742D01*
X0067155Y0276809D01*
X0067104Y0276879D01*
X0067056Y0276950D01*
X0067012Y0277024D01*
X0066970Y0277099D01*
X0066932Y0277176D01*
X0066898Y0277254D01*
X0066867Y0277335D01*
X0066839Y0277416D01*
X0066815Y0277498D01*
X0066795Y0277582D01*
X0066778Y0277666D01*
X0066765Y0277751D01*
X0066755Y0277836D01*
X0066750Y0277922D01*
X0066748Y0278008D01*
X0055331Y0285488D02*
X0055331Y0294150D01*
X0055329Y0294236D01*
X0055324Y0294322D01*
X0055314Y0294407D01*
X0055301Y0294492D01*
X0055284Y0294576D01*
X0055264Y0294660D01*
X0055240Y0294742D01*
X0055212Y0294823D01*
X0055181Y0294904D01*
X0055147Y0294982D01*
X0055109Y0295059D01*
X0055067Y0295135D01*
X0055023Y0295208D01*
X0054975Y0295279D01*
X0054924Y0295349D01*
X0054870Y0295416D01*
X0054814Y0295480D01*
X0054754Y0295542D01*
X0054692Y0295602D01*
X0054628Y0295658D01*
X0054561Y0295712D01*
X0054491Y0295763D01*
X0054420Y0295811D01*
X0054347Y0295855D01*
X0054271Y0295897D01*
X0054194Y0295935D01*
X0054116Y0295969D01*
X0054035Y0296000D01*
X0053954Y0296028D01*
X0053872Y0296052D01*
X0053788Y0296072D01*
X0053704Y0296089D01*
X0053619Y0296102D01*
X0053534Y0296112D01*
X0053448Y0296117D01*
X0053362Y0296119D01*
X0053276Y0296117D01*
X0053190Y0296112D01*
X0053105Y0296102D01*
X0053020Y0296089D01*
X0052936Y0296072D01*
X0052852Y0296052D01*
X0052770Y0296028D01*
X0052689Y0296000D01*
X0052608Y0295969D01*
X0052530Y0295935D01*
X0052453Y0295897D01*
X0052378Y0295855D01*
X0052304Y0295811D01*
X0052233Y0295763D01*
X0052163Y0295712D01*
X0052096Y0295658D01*
X0052032Y0295602D01*
X0051970Y0295542D01*
X0051910Y0295480D01*
X0051854Y0295416D01*
X0051800Y0295349D01*
X0051749Y0295279D01*
X0051701Y0295208D01*
X0051657Y0295135D01*
X0051615Y0295059D01*
X0051577Y0294982D01*
X0051543Y0294904D01*
X0051512Y0294823D01*
X0051484Y0294742D01*
X0051460Y0294660D01*
X0051440Y0294576D01*
X0051423Y0294492D01*
X0051410Y0294407D01*
X0051400Y0294322D01*
X0051395Y0294236D01*
X0051393Y0294150D01*
X0051394Y0294150D02*
X0051394Y0285488D01*
X0053362Y0283519D02*
X0053448Y0283521D01*
X0053534Y0283526D01*
X0053619Y0283536D01*
X0053704Y0283549D01*
X0053788Y0283566D01*
X0053872Y0283586D01*
X0053954Y0283610D01*
X0054035Y0283638D01*
X0054116Y0283669D01*
X0054194Y0283703D01*
X0054271Y0283741D01*
X0054347Y0283783D01*
X0054420Y0283827D01*
X0054491Y0283875D01*
X0054561Y0283926D01*
X0054628Y0283980D01*
X0054692Y0284036D01*
X0054754Y0284096D01*
X0054814Y0284158D01*
X0054870Y0284222D01*
X0054924Y0284289D01*
X0054975Y0284359D01*
X0055023Y0284430D01*
X0055067Y0284504D01*
X0055109Y0284579D01*
X0055147Y0284656D01*
X0055181Y0284734D01*
X0055212Y0284815D01*
X0055240Y0284896D01*
X0055264Y0284978D01*
X0055284Y0285062D01*
X0055301Y0285146D01*
X0055314Y0285231D01*
X0055324Y0285316D01*
X0055329Y0285402D01*
X0055331Y0285488D01*
X0053362Y0283519D02*
X0053276Y0283521D01*
X0053190Y0283526D01*
X0053105Y0283536D01*
X0053020Y0283549D01*
X0052936Y0283566D01*
X0052852Y0283586D01*
X0052770Y0283610D01*
X0052689Y0283638D01*
X0052608Y0283669D01*
X0052530Y0283703D01*
X0052453Y0283741D01*
X0052378Y0283783D01*
X0052304Y0283827D01*
X0052233Y0283875D01*
X0052163Y0283926D01*
X0052096Y0283980D01*
X0052032Y0284036D01*
X0051970Y0284096D01*
X0051910Y0284158D01*
X0051854Y0284222D01*
X0051800Y0284289D01*
X0051749Y0284359D01*
X0051701Y0284430D01*
X0051657Y0284504D01*
X0051615Y0284579D01*
X0051577Y0284656D01*
X0051543Y0284734D01*
X0051512Y0284815D01*
X0051484Y0284896D01*
X0051460Y0284978D01*
X0051440Y0285062D01*
X0051423Y0285146D01*
X0051410Y0285231D01*
X0051400Y0285316D01*
X0051395Y0285402D01*
X0051393Y0285488D01*
X0068717Y0300843D02*
X0077378Y0300843D01*
X0079347Y0302811D02*
X0079345Y0302897D01*
X0079340Y0302983D01*
X0079330Y0303068D01*
X0079317Y0303153D01*
X0079300Y0303237D01*
X0079280Y0303321D01*
X0079256Y0303403D01*
X0079228Y0303484D01*
X0079197Y0303565D01*
X0079163Y0303643D01*
X0079125Y0303720D01*
X0079083Y0303796D01*
X0079039Y0303869D01*
X0078991Y0303940D01*
X0078940Y0304010D01*
X0078886Y0304077D01*
X0078830Y0304141D01*
X0078770Y0304203D01*
X0078708Y0304263D01*
X0078644Y0304319D01*
X0078577Y0304373D01*
X0078507Y0304424D01*
X0078436Y0304472D01*
X0078363Y0304516D01*
X0078287Y0304558D01*
X0078210Y0304596D01*
X0078132Y0304630D01*
X0078051Y0304661D01*
X0077970Y0304689D01*
X0077888Y0304713D01*
X0077804Y0304733D01*
X0077720Y0304750D01*
X0077635Y0304763D01*
X0077550Y0304773D01*
X0077464Y0304778D01*
X0077378Y0304780D01*
X0068717Y0304780D01*
X0068631Y0304778D01*
X0068545Y0304773D01*
X0068460Y0304763D01*
X0068375Y0304750D01*
X0068291Y0304733D01*
X0068207Y0304713D01*
X0068125Y0304689D01*
X0068044Y0304661D01*
X0067963Y0304630D01*
X0067885Y0304596D01*
X0067808Y0304558D01*
X0067733Y0304516D01*
X0067659Y0304472D01*
X0067588Y0304424D01*
X0067518Y0304373D01*
X0067451Y0304319D01*
X0067387Y0304263D01*
X0067325Y0304203D01*
X0067265Y0304141D01*
X0067209Y0304077D01*
X0067155Y0304010D01*
X0067104Y0303940D01*
X0067056Y0303869D01*
X0067012Y0303796D01*
X0066970Y0303720D01*
X0066932Y0303643D01*
X0066898Y0303565D01*
X0066867Y0303484D01*
X0066839Y0303403D01*
X0066815Y0303321D01*
X0066795Y0303237D01*
X0066778Y0303153D01*
X0066765Y0303068D01*
X0066755Y0302983D01*
X0066750Y0302897D01*
X0066748Y0302811D01*
X0066750Y0302725D01*
X0066755Y0302639D01*
X0066765Y0302554D01*
X0066778Y0302469D01*
X0066795Y0302385D01*
X0066815Y0302301D01*
X0066839Y0302219D01*
X0066867Y0302138D01*
X0066898Y0302057D01*
X0066932Y0301979D01*
X0066970Y0301902D01*
X0067012Y0301827D01*
X0067056Y0301753D01*
X0067104Y0301682D01*
X0067155Y0301612D01*
X0067209Y0301545D01*
X0067265Y0301481D01*
X0067325Y0301419D01*
X0067387Y0301359D01*
X0067451Y0301303D01*
X0067518Y0301249D01*
X0067588Y0301198D01*
X0067659Y0301150D01*
X0067733Y0301106D01*
X0067808Y0301064D01*
X0067885Y0301026D01*
X0067963Y0300992D01*
X0068044Y0300961D01*
X0068125Y0300933D01*
X0068207Y0300909D01*
X0068291Y0300889D01*
X0068375Y0300872D01*
X0068460Y0300859D01*
X0068545Y0300849D01*
X0068631Y0300844D01*
X0068717Y0300842D01*
X0077378Y0300842D02*
X0077464Y0300844D01*
X0077550Y0300849D01*
X0077635Y0300859D01*
X0077720Y0300872D01*
X0077804Y0300889D01*
X0077888Y0300909D01*
X0077970Y0300933D01*
X0078051Y0300961D01*
X0078132Y0300992D01*
X0078210Y0301026D01*
X0078287Y0301064D01*
X0078363Y0301106D01*
X0078436Y0301150D01*
X0078507Y0301198D01*
X0078577Y0301249D01*
X0078644Y0301303D01*
X0078708Y0301359D01*
X0078770Y0301419D01*
X0078830Y0301481D01*
X0078886Y0301545D01*
X0078940Y0301612D01*
X0078991Y0301682D01*
X0079039Y0301753D01*
X0079083Y0301827D01*
X0079125Y0301902D01*
X0079163Y0301979D01*
X0079197Y0302057D01*
X0079228Y0302138D01*
X0079256Y0302219D01*
X0079280Y0302301D01*
X0079300Y0302385D01*
X0079317Y0302469D01*
X0079330Y0302554D01*
X0079340Y0302639D01*
X0079345Y0302725D01*
X0079347Y0302811D01*
M02*
